SplineFontDB: 3.0
FontName: Vinque
FullName: Vinque
FamilyName: Vinque
Weight: Book
Copyright: © 2002 Ray Larabie. This font is freeware. Read attached text file for details. Info & updates visit www.larabiefonts.com. Donations gratefully accepted at www.larabiefonts.com/donation.html. Also visit my commercial type foundry at www.typodermic.com. This font was updated in 2004.
Version: 2.100 2004
ItalicAngle: 0
UnderlinePosition: -76.8
UnderlineWidth: 51.2
Ascent: 819
Descent: 205
LayerCount: 2
Layer: 0 1 "Back"  1
Layer: 1 1 "Fore"  0
NeedsXUIDChange: 1
XUID: [1021 908 1826604763 11065752]
FSType: 0
OS2Version: 2
OS2_WeightWidthSlopeOnly: 0
OS2_UseTypoMetrics: 1
CreationTime: 1077496183
ModificationTime: 1251614622
PfmFamily: 17
TTFWeight: 400
TTFWidth: 5
LineGap: 9
VLineGap: 0
Panose: 2 0 5 3 0 0 0 2 0 3
OS2TypoAscent: -46
OS2TypoAOffset: 1
OS2TypoDescent: 0
OS2TypoDOffset: 1
OS2TypoLinegap: 31
OS2WinAscent: 0
OS2WinAOffset: 1
OS2WinDescent: 0
OS2WinDOffset: 1
HheadAscent: 0
HheadAOffset: 1
HheadDescent: 0
HheadDOffset: 1
OS2SubXSize: 102
OS2SubYSize: 102
OS2SubXOff: 0
OS2SubYOff: 143
OS2SupXSize: 102
OS2SupYSize: 102
OS2SupXOff: 0
OS2SupYOff: 143
OS2StrikeYSize: 51
OS2StrikeYPos: 256
OS2Vendor: 'LARA'
OS2CodePages: 20000111.40000000
OS2UnicodeRanges: 80000003.00000000.00000000.00000000
DEI: 91125
TtTable: prep
PUSHW_1
 0
CALL
SVTCA[y-axis]
PUSHW_3
 1
 4
 2
CALL
SVTCA[x-axis]
PUSHW_3
 5
 3
 2
CALL
SVTCA[x-axis]
PUSHW_7
 5
 42
 33
 26
 18
 14
 8
CALL
PUSHW_7
 6
 56
 44
 36
 26
 14
 8
CALL
PUSHW_7
 7
 38
 33
 26
 18
 14
 8
CALL
SVTCA[y-axis]
PUSHW_7
 1
 55
 44
 36
 26
 14
 8
CALL
PUSHW_7
 2
 91
 74
 58
 41
 22
 8
CALL
PUSHW_7
 3
 64
 53
 36
 26
 22
 8
CALL
PUSHW_7
 4
 51
 44
 36
 26
 14
 8
CALL
SVTCA[y-axis]
PUSHW_3
 8
 4
 7
CALL
PUSHW_1
 0
DUP
RCVT
RDTG
ROUND[Black]
RTG
WCVTP
EndTTInstrs
TtTable: fpgm
PUSHW_1
 0
FDEF
MPPEM
PUSHW_1
 0
LT
IF
PUSHB_2
 1
 1
INSTCTRL
EIF
PUSHW_1
 511
SCANCTRL
PUSHW_1
 68
SCVTCI
PUSHW_2
 0
 3
SDS
SDB
ENDF
PUSHW_1
 1
FDEF
DUP
DUP
RCVT

StartChar: breve
Encoding: 5 5 1
Width: 1200
Flags: HW
LayerCount: 2
Fore
SplineSet
281 974 m 1,0,1
 245 850 245 850 135 850 c 256,2,3
 25 850 25 850 -1 974 c 1,4,-1
 90 974 l 1,5,6
 102 885 102 885 160 885 c 0,7,8
 218 885 218 885 233 974 c 1,9,-1
 281 974 l 1,0,1
EndSplineSet
EndChar

StartChar: ring
Encoding: 8 8 3
Width: 1200
Flags: HW
LayerCount: 2
Fore
SplineSet
35 926 m 256,0,1
 35 903 35 903 50 888 c 128,-1,2
 65 873 65 873 87 873 c 256,3,4
 110 873 110 873 124.5 888 c 128,-1,5
 139 903 139 903 139 926 c 256,6,7
 139 949 139 949 124.5 963.5 c 128,-1,8
 110 978 110 978 87 978 c 256,9,10
 64 978 64 978 49.5 963.5 c 128,-1,11
 35 949 35 949 35 926 c 256,0,1
-7 926 m 256,12,13
 -7 965 -7 965 20.5 993.5 c 128,-1,14
 48 1022 48 1022 87 1022 c 256,15,16
 126 1022 126 1022 154.5 993.5 c 128,-1,17
 183 965 183 965 183 926 c 256,18,19
 183 887 183 887 154.5 859 c 128,-1,20
 126 831 126 831 87 831 c 256,21,22
 48 831 48 831 20.5 859 c 128,-1,23
 -7 887 -7 887 -7 926 c 256,12,13
EndSplineSet
EndChar

StartChar: hungarumlaut
Encoding: 10 10 4
Width: 1200
Flags: HW
LayerCount: 2
Fore
SplineSet
332 940 m 1,0,-1
 181 829 l 1,1,-1
 148 850 l 1,2,-1
 292 969 l 1,3,-1
 332 940 l 1,0,-1
199 940 m 1,4,-1
 48 829 l 1,5,-1
 15 850 l 1,6,-1
 159 969 l 1,7,-1
 199 940 l 1,4,-1
EndSplineSet
EndChar

StartChar: ogonek
Encoding: 11 11 5
Width: 1200
Flags: HW
LayerCount: 2
Fore
SplineSet
56 -156 m 1,0,1
 95 -155 95 -155 116 -130 c 1,2,-1
 153 -159 l 1,3,4
 140 -189 140 -189 100 -200 c 1,5,6
 72 -191 72 -191 42 -160 c 0,7,8
 12 -129 12 -129 11 -95 c 0,9,10
 10 -62 10 -62 34.5 -38.5 c 128,-1,11
 59 -15 59 -15 98 -19 c 1,12,13
 100 -2 100 -2 88 10 c 1,14,-1
 113 10 l 1,15,16
 138 -12 138 -12 137 -49 c 1,17,18
 82 -52 82 -52 63.5 -76.5 c 128,-1,19
 45 -101 45 -101 56 -156 c 1,0,1
EndSplineSet
EndChar

StartChar: caron
Encoding: 12 12 6
Width: 1200
Flags: HW
LayerCount: 2
Fore
SplineSet
165 850 m 1,0,-1
 112 850 l 1,1,-1
 -1 994 l 1,2,-1
 67 994 l 1,3,-1
 141 885 l 1,4,-1
 221 994 l 1,5,-1
 281 994 l 1,6,-1
 165 850 l 1,0,-1
EndSplineSet
EndChar

StartChar: dotlessi
Encoding: 13 13 7
Width: 1200
Flags: HW
LayerCount: 2
Fore
SplineSet
176 -9 m 1,0,-1
 71 70 l 1,1,-1
 71 351 l 2,2,3
 71 411 71 411 19 417 c 1,4,-1
 19 435 l 1,5,-1
 120 534 l 1,6,-1
 207 444 l 1,7,-1
 207 141 l 1,8,9
 208 73 208 73 270 74 c 1,10,-1
 270 49 l 1,11,-1
 176 -9 l 1,0,-1
EndSplineSet
EndChar

StartChar: fraction
Encoding: 25 25 8
Width: 1200
Flags: HW
LayerCount: 2
Fore
SplineSet
636 797 m 1,0,-1
 138 0 l 1,1,-1
 65 0 l 1,2,-1
 569 797 l 1,3,-1
 636 797 l 1,0,-1
EndSplineSet
EndChar

StartChar: fi
Encoding: 26 26 9
Width: 1200
Flags: HW
LayerCount: 2
Fore
SplineSet
373 70 m 1,0,-1
 373 351 l 1,1,2
 361 453 361 453 322 456 c 1,3,-1
 223 456 l 1,4,-1
 223 0 l 1,5,-1
 87 0 l 1,6,-1
 87 456 l 1,7,-1
 24 456 l 1,8,-1
 24 474 l 1,9,10
 87 489 87 489 81 527 c 1,11,12
 76 566 76 566 24 569 c 1,13,-1
 24 588 l 1,14,15
 178 734 178 734 307 776 c 1,16,17
 329 726 329 726 396 708 c 1,18,-1
 509 762 l 1,19,-1
 509 657 l 1,20,-1
 392 599 l 1,21,-1
 392 687 l 1,22,-1
 299 626 l 1,23,-1
 294 628 l 1,24,25
 275 677 275 677 203 641 c 1,26,27
 222 606 222 606 223 551 c 1,28,-1
 223 534 l 1,29,-1
 423 534 l 1,30,-1
 509 444 l 1,31,-1
 509 141 l 1,32,33
 510 73 510 73 572 74 c 1,34,-1
 572 49 l 1,35,-1
 478 -9 l 1,36,-1
 373 70 l 1,0,-1
EndSplineSet
EndChar

StartChar: fl
Encoding: 27 27 10
Width: 1200
Flags: HW
LayerCount: 2
Fore
SplineSet
371 66 m 1,0,-1
 371 594 l 2,1,2
 371 642 371 642 322 659 c 0,3,4
 274 676 274 676 203 641 c 1,5,6
 222 606 222 606 223 551 c 1,7,-1
 223 527 l 1,8,-1
 319 527 l 1,9,-1
 319 435 l 1,10,-1
 223 435 l 1,11,-1
 223 0 l 1,12,-1
 87 0 l 1,13,-1
 87 435 l 1,14,-1
 24 435 l 1,15,-1
 24 454 l 1,16,17
 87 490 87 490 81 527 c 1,18,19
 76 566 76 566 24 569 c 1,20,-1
 24 588 l 1,21,22
 178 734 178 734 307 776 c 1,23,24
 381 668 381 668 507 776 c 1,25,-1
 507 137 l 1,26,27
 508 69 508 69 570 70 c 1,28,-1
 570 45 l 1,29,-1
 476 -13 l 1,30,-1
 371 66 l 1,0,-1
EndSplineSet
EndChar

StartChar: Lslash
Encoding: 28 28 11
Width: 1200
Flags: HW
LayerCount: 2
Fore
SplineSet
16 316 m 1,0,-1
 325 450 l 1,1,-1
 341 413 l 1,2,-1
 33 280 l 1,3,-1
 16 316 l 1,0,-1
643 191 m 1,4,5
 616 130 616 130 591.5 91.5 c 128,-1,6
 567 53 567 53 547 36 c 0,7,8
 504 0 504 0 458 -5 c 128,-1,9
 412 -10 412 -10 351 -4 c 0,10,11
 321 -2 321 -2 294 0 c 128,-1,12
 267 2 267 2 244 3 c 0,13,14
 237 4 237 4 230 4 c 256,15,16
 224 4 224 4 219 4 c 2,17,-1
 199 4 l 2,18,19
 168 4 168 4 136.5 -0.5 c 128,-1,20
 105 -5 105 -5 53 -13 c 1,21,-1
 30 26 l 1,22,23
 64 59 64 59 79.5 95.5 c 128,-1,24
 95 132 95 132 95 178 c 2,25,-1
 95 490 l 2,26,27
 95 571 95 571 44 598 c 1,28,-1
 48 628 l 1,29,30
 136 652 136 652 216 705 c 0,31,32
 256 732 256 732 293 749.5 c 128,-1,33
 330 767 330 767 364 777 c 0,34,35
 434 797 434 797 505.5 738 c 128,-1,36
 577 679 577 679 597 605 c 1,37,38
 559 598 559 598 522 583.5 c 128,-1,39
 485 569 485 569 450 549 c 1,40,41
 456 623 456 623 394 653 c 1,42,43
 335 685 335 685 258 682 c 1,44,45
 253 649 253 649 250 614.5 c 128,-1,46
 247 580 247 580 247 544 c 2,47,-1
 247 236 l 2,48,49
 247 190 247 190 189 114 c 1,50,-1
 191 115 l 1,51,52
 251 151 251 151 311 151 c 0,53,54
 365 151 365 151 438 129 c 0,55,56
 510 107 510 107 613 215 c 1,57,-1
 643 191 l 1,4,5
EndSplineSet
EndChar

StartChar: lslash
Encoding: 29 29 12
Width: 1200
Flags: HW
LayerCount: 2
Fore
SplineSet
-5 362 m 1,0,-1
 272 437 l 1,1,-1
 283 398 l 1,2,-1
 5 324 l 1,3,-1
 -5 362 l 1,0,-1
176 -9 m 1,4,-1
 71 70 l 1,5,-1
 71 598 l 2,6,7
 71 658 71 658 19 664 c 1,8,-1
 19 682 l 1,9,-1
 207 780 l 1,10,-1
 207 141 l 1,11,12
 208 73 208 73 270 74 c 1,13,-1
 270 49 l 1,14,-1
 176 -9 l 1,4,-1
EndSplineSet
EndChar

StartChar: exclam
Encoding: 33 33 15
Width: 1200
Flags: HW
LayerCount: 2
Fore
SplineSet
204 93 m 1,0,-1
 115 -13 l 1,1,-1
 34 82 l 1,2,-1
 120 180 l 1,3,-1
 204 93 l 1,0,-1
205 772 m 1,4,5
 185 630 185 630 169.5 488.5 c 128,-1,6
 154 347 154 347 142 191 c 1,7,-1
 94 191 l 1,8,9
 86 347 86 347 70.5 488.5 c 128,-1,10
 55 630 55 630 34 772 c 1,11,-1
 205 772 l 1,4,5
EndSplineSet
EndChar

StartChar: quotedbl
Encoding: 34 34 16
Width: 1200
Flags: HW
LayerCount: 2
Fore
SplineSet
53 568 m 1,0,-1
 33 577 l 1,1,-1
 30 687 l 2,2,3
 30 716 30 716 7 717 c 1,4,-1
 7 726 l 1,5,-1
 51 771 l 1,6,-1
 90 730 l 1,7,-1
 53 568 l 1,0,-1
156 568 m 1,8,-1
 135 577 l 1,9,-1
 132 687 l 2,10,11
 132 716 132 716 110 717 c 1,12,-1
 110 726 l 1,13,-1
 154 771 l 1,14,-1
 193 730 l 1,15,-1
 156 568 l 1,8,-1
EndSplineSet
EndChar

StartChar: numbersign
Encoding: 35 35 17
Width: 1200
Flags: HW
LayerCount: 2
Fore
SplineSet
184 309 m 1,0,-1
 321 309 l 1,1,-1
 355 437 l 1,2,-1
 219 437 l 1,3,-1
 184 309 l 1,0,-1
-7 262 m 1,4,-1
 5 309 l 1,5,-1
 105 309 l 1,6,-1
 140 437 l 1,7,-1
 40 437 l 1,8,-1
 54 492 l 1,9,-1
 155 492 l 1,10,-1
 182 597 l 2,11,12
 191 632 191 632 163 635 c 1,13,-1
 166 646 l 1,14,-1
 290 702 l 1,15,-1
 233 492 l 1,16,-1
 370 492 l 1,17,-1
 397 597 l 2,18,19
 406 632 406 632 378 635 c 1,20,-1
 381 646 l 1,21,-1
 504 702 l 1,22,-1
 447 492 l 1,23,-1
 541 492 l 1,24,-1
 526 437 l 1,25,-1
 433 437 l 1,26,-1
 398 309 l 1,27,-1
 492 309 l 1,28,-1
 479 262 l 1,29,-1
 386 262 l 1,30,-1
 355 145 l 2,31,32
 345 107 345 107 382 108 c 1,33,-1
 378 93 l 1,34,-1
 314 59 l 1,35,-1
 266 104 l 1,36,-1
 308 262 l 1,37,-1
 172 262 l 1,38,-1
 141 145 l 2,39,40
 131 107 131 107 168 108 c 1,41,-1
 164 93 l 1,42,-1
 100 59 l 1,43,-1
 51 104 l 1,44,-1
 93 262 l 1,45,-1
 -7 262 l 1,4,-1
EndSplineSet
EndChar

StartChar: dollar
Encoding: 36 36 18
Width: 1200
Flags: HW
LayerCount: 2
Fore
SplineSet
329 284 m 0,0,1
 327 286 327 286 324.5 288 c 128,-1,2
 322 290 322 290 319 292 c 1,3,-1
 319 153 l 1,4,5
 339 155 339 155 361 159 c 1,6,7
 374 236 374 236 329 284 c 0,0,1
147 589 m 1,8,9
 110 505 110 505 147 455 c 0,10,11
 166 429 166 429 199 416 c 1,12,-1
 199 593 l 1,13,14
 167 595 167 595 147 589 c 1,8,9
224 171 m 1,15,16
 228 169 228 169 232.5 167 c 128,-1,17
 237 165 237 165 242 164 c 0,18,19
 269 154 269 154 297 153 c 1,20,-1
 297 308 l 1,21,22
 264 326 264 326 224 331 c 1,23,-1
 224 171 l 1,15,16
265 402 m 0,24,25
 280 401 280 401 297 402 c 1,26,-1
 297 557 l 1,27,28
 290 562 290 562 281.5 566 c 128,-1,29
 273 570 273 570 265 574 c 0,30,31
 254 579 254 579 244 583 c 128,-1,32
 234 587 234 587 224 589 c 1,33,-1
 224 408 l 1,34,35
 233 406 233 406 243.5 404.5 c 128,-1,36
 254 403 254 403 265 402 c 0,24,25
319 0 m 1,37,-1
 297 0 l 1,38,-1
 297 96 l 1,39,40
 256 82 256 82 224 76 c 1,41,-1
 224 0 l 1,42,-1
 199 0 l 1,43,-1
 199 83 l 1,44,45
 163 96 163 96 128.5 114 c 128,-1,46
 94 132 94 132 60 155 c 0,47,48
 46 165 46 165 34.5 175 c 128,-1,49
 23 185 23 185 14 196 c 1,50,51
 80 220 80 220 134 270 c 1,52,53
 163 215 163 215 199 187 c 1,54,-1
 199 333 l 1,55,56
 160 334 160 334 128.5 329 c 128,-1,57
 97 324 97 324 72 313 c 1,58,59
 17 406 17 406 20 477.5 c 128,-1,60
 23 549 23 549 96 595 c 0,61,62
 114 607 114 607 134.5 619.5 c 128,-1,63
 155 632 155 632 177 644 c 2,64,-1
 199 656 l 1,65,-1
 199 763 l 1,66,-1
 224 763 l 1,67,-1
 224 671 l 1,68,69
 235 677 235 677 247.5 683.5 c 128,-1,70
 260 690 260 690 273 697 c 1,71,72
 278 694 278 694 284.5 691 c 128,-1,73
 291 688 291 688 297 685 c 1,74,-1
 297 763 l 1,75,-1
 319 763 l 1,76,-1
 319 673 l 1,77,78
 394 630 394 630 452 574 c 1,79,80
 402 559 402 559 339 497 c 1,81,82
 333 523 333 523 319 536 c 1,83,-1
 319 404 l 1,84,85
 348 408 348 408 375.5 416 c 128,-1,86
 403 424 403 424 431 437 c 1,87,88
 465 349 465 349 468 260 c 1,89,90
 468 193 468 193 386 141 c 0,91,92
 369 130 369 130 352.5 121.5 c 128,-1,93
 336 113 336 113 319 105 c 1,94,-1
 319 0 l 1,37,-1
EndSplineSet
EndChar

StartChar: percent
Encoding: 37 37 19
Width: 1200
Flags: HW
LayerCount: 2
Fore
SplineSet
156 773 m 1,0,1
 243 723 243 723 276.5 667.5 c 128,-1,2
 310 612 310 612 310 548 c 0,3,4
 310 485 310 485 259 435 c 0,5,6
 207 386 207 386 139 376 c 1,7,8
 69 401 69 401 23 451 c 0,9,10
 -26 502 -26 502 -23 566 c 1,11,12
 -20 635 -20 635 25 676 c 1,13,14
 68 719 68 719 156 773 c 1,0,1
52 666 m 1,15,16
 39 633 39 633 42.5 602.5 c 128,-1,17
 46 572 46 572 61.5 546 c 128,-1,18
 77 520 77 520 100.5 500 c 128,-1,19
 124 480 124 480 149.5 468 c 128,-1,20
 175 456 175 456 200 452.5 c 128,-1,21
 225 449 225 449 245 457 c 1,22,23
 261 497 261 497 249.5 539.5 c 128,-1,24
 238 582 238 582 208 614 c 128,-1,25
 178 646 178 646 136.5 662 c 128,-1,26
 95 678 95 678 52 666 c 1,15,16
531 392 m 1,27,28
 618 342 618 342 652 286.5 c 128,-1,29
 686 231 686 231 686 167 c 0,30,31
 686 104 686 104 635 54 c 0,32,33
 583 5 583 5 515 -5 c 1,34,35
 445 20 445 20 398 70 c 1,36,37
 349 120 349 120 352 185 c 1,38,39
 357 253 357 253 400 295 c 0,40,41
 443 338 443 338 531 392 c 1,27,28
428 285 m 1,42,43
 415 252 415 252 418.5 221.5 c 128,-1,44
 422 191 422 191 437.5 165.5 c 128,-1,45
 453 140 453 140 476.5 119.5 c 128,-1,46
 500 99 500 99 525.5 87 c 128,-1,47
 551 75 551 75 576.5 71.5 c 128,-1,48
 602 68 602 68 621 76 c 1,49,50
 637 116 637 116 625 158.5 c 128,-1,51
 613 201 613 201 583.5 233 c 128,-1,52
 554 265 554 265 512.5 281 c 128,-1,53
 471 297 471 297 428 285 c 1,42,43
636 797 m 1,54,-1
 138 0 l 1,55,-1
 65 0 l 1,56,-1
 569 797 l 1,57,-1
 636 797 l 1,54,-1
EndSplineSet
EndChar

StartChar: ampersand
Encoding: 38 38 20
Width: 1200
Flags: HW
LayerCount: 2
Fore
SplineSet
700 5 m 1,0,1
 565 74 565 74 344 -13 c 1,2,3
 245 -5 245 -5 141 83 c 1,4,5
 41 171 41 171 16 276 c 1,6,7
 33 307 33 307 58 336.5 c 128,-1,8
 83 366 83 366 113 394 c 0,9,10
 173 451 173 451 221 473 c 1,11,12
 199 483 199 483 179 497 c 128,-1,13
 159 511 159 511 140 529 c 0,14,15
 125 545 125 545 114.5 566 c 128,-1,16
 104 587 104 587 104 611 c 0,17,18
 104 640 104 640 116.5 666 c 128,-1,19
 129 692 129 692 152 716 c 1,20,21
 187 750 187 750 237.5 769 c 128,-1,22
 288 788 288 788 349 788 c 1,23,24
 497 682 497 682 690 693 c 1,25,-1
 575 577 l 1,26,27
 396 624 396 624 298 728 c 1,28,29
 226 669 226 669 244 610 c 0,30,31
 260 554 260 554 328 506 c 0,32,33
 363 482 363 482 389.5 466 c 128,-1,34
 416 450 416 450 435 439 c 1,35,-1
 424 400 l 1,36,-1
 370 394 l 1,37,38
 337 381 337 381 309 364.5 c 128,-1,39
 281 348 281 348 256 329 c 0,40,41
 205 289 205 289 210 221 c 0,42,43
 216 153 216 153 276 108 c 1,44,45
 337 63 337 63 407 75 c 0,46,47
 477 87 477 87 489 134 c 128,-1,48
 501 181 501 181 501 213 c 2,49,-1
 501 306 l 1,50,-1
 653 306 l 1,51,-1
 653 220 l 2,52,53
 653 109 653 109 734 53 c 1,54,-1
 700 5 l 1,0,1
EndSplineSet
EndChar

StartChar: quotesingle
Encoding: 39 39 21
Width: 1200
Flags: HW
LayerCount: 2
Fore
SplineSet
53 568 m 1,0,-1
 33 577 l 1,1,-1
 30 687 l 2,2,3
 30 716 30 716 7 717 c 1,4,-1
 7 726 l 1,5,-1
 51 771 l 1,6,-1
 90 730 l 1,7,-1
 53 568 l 1,0,-1
EndSplineSet
EndChar

StartChar: parenleft
Encoding: 40 40 22
Width: 1200
Flags: HW
LayerCount: 2
Fore
SplineSet
371 851 m 1,0,1
 131 737 131 737 161 399 c 1,2,3
 192 63 192 63 362 -40 c 1,4,-1
 349 -81 l 1,5,6
 27 27 27 27 25 385 c 0,7,8
 22 744 22 744 358 867 c 1,9,-1
 371 851 l 1,0,1
EndSplineSet
EndChar

StartChar: parenright
Encoding: 41 41 23
Width: 1200
Flags: HW
LayerCount: 2
Fore
SplineSet
20 -65 m 1,0,1
 260 49 260 49 229 386 c 1,2,3
 199 724 199 724 29 826 c 1,4,-1
 42 867 l 1,5,6
 364 759 364 759 367 400 c 0,7,8
 370 42 370 42 33 -81 c 1,9,-1
 20 -65 l 1,0,1
EndSplineSet
EndChar

StartChar: asterisk
Encoding: 42 42 24
Width: 1200
Flags: HW
LayerCount: 2
Fore
SplineSet
407 430 m 1,0,-1
 268 508 l 1,1,-1
 302 353 l 1,2,-1
 170 353 l 1,3,-1
 202 510 l 1,4,-1
 63 430 l 1,5,-1
 23 556 l 1,6,-1
 181 574 l 1,7,-1
 63 682 l 1,8,-1
 170 759 l 1,9,-1
 239 610 l 1,10,-1
 302 759 l 1,11,-1
 407 682 l 1,12,-1
 291 567 l 1,13,-1
 450 556 l 1,14,-1
 407 430 l 1,0,-1
EndSplineSet
EndChar

StartChar: plus
Encoding: 43 43 25
Width: 1200
Flags: HW
LayerCount: 2
Fore
SplineSet
55 366 m 1,0,1
 94 350 94 350 156 349 c 2,2,-1
 187 349 l 1,3,-1
 187 468 l 1,4,-1
 275 521 l 1,5,-1
 275 349 l 1,6,-1
 365 349 l 2,7,8
 401 349 401 349 438 378 c 1,9,-1
 460 365 l 1,10,-1
 410 231 l 1,11,12
 377 246 377 246 352 247 c 2,13,-1
 275 247 l 1,14,-1
 275 71 l 1,15,-1
 187 71 l 1,16,-1
 187 247 l 1,17,-1
 99 247 l 2,18,19
 54 247 54 247 26 210 c 1,20,-1
 6 219 l 1,21,-1
 55 366 l 1,0,1
EndSplineSet
EndChar

StartChar: comma
Encoding: 44 44 26
Width: 1200
Flags: HW
LayerCount: 2
Fore
SplineSet
49 -80 m 1,0,-1
 29 -67 l 1,1,-1
 84 18 l 1,2,-1
 24 88 l 1,3,-1
 115 188 l 1,4,-1
 194 99 l 1,5,-1
 49 -80 l 1,0,-1
EndSplineSet
EndChar

StartChar: hyphen
Encoding: 45 45 27
Width: 1200
Flags: HW
LayerCount: 2
Fore
SplineSet
59 366 m 1,0,1
 98 350 98 350 160 349 c 2,2,-1
 237 349 l 2,3,4
 273 349 273 349 310 378 c 1,5,-1
 332 365 l 1,6,-1
 282 231 l 1,7,8
 249 246 249 246 224 247 c 2,9,-1
 103 247 l 2,10,11
 58 247 58 247 30 210 c 1,12,-1
 10 219 l 1,13,-1
 59 366 l 1,0,1
EndSplineSet
EndChar

StartChar: period
Encoding: 46 46 28
Width: 1200
Flags: HW
LayerCount: 2
Fore
SplineSet
95 -8 m 1,0,-1
 15 86 l 1,1,-1
 106 185 l 1,2,-1
 185 98 l 1,3,-1
 95 -8 l 1,0,-1
EndSplineSet
EndChar

StartChar: slash
Encoding: 47 47 29
Width: 1200
Flags: HW
LayerCount: 2
Fore
SplineSet
404 857 m 1,0,-1
 60 -124 l 1,1,-1
 -13 -124 l 1,2,-1
 338 857 l 1,3,-1
 404 857 l 1,0,-1
EndSplineSet
EndChar

StartChar: zero
Encoding: 48 48 30
Width: 1200
Flags: HW
LayerCount: 2
Fore
SplineSet
148 597 m 1,0,1
 117 543 117 543 118.5 479 c 128,-1,2
 120 415 120 415 144 353.5 c 128,-1,3
 168 292 168 292 209.5 238 c 128,-1,4
 251 184 251 184 301 150 c 128,-1,5
 351 116 351 116 405 106.5 c 128,-1,6
 459 97 459 97 507 125 c 1,7,8
 527 173 527 173 527.5 237.5 c 128,-1,9
 528 302 528 302 511 367.5 c 128,-1,10
 494 433 494 433 460.5 492 c 128,-1,11
 427 551 427 551 380.5 587.5 c 128,-1,12
 334 624 334 624 275 630 c 128,-1,13
 216 636 216 636 148 597 c 1,0,1
343 793 m 1,14,15
 478 709 478 709 544 601 c 128,-1,16
 610 493 610 493 610 343 c 0,17,18
 610 215 610 215 522 115 c 0,19,20
 436 16 436 16 314 -11 c 1,21,22
 198 39 198 39 113 141 c 1,23,24
 28 244 28 244 33 379 c 1,25,26
 37 515 37 515 116 606 c 0,27,28
 156 652 156 652 212.5 698 c 128,-1,29
 269 744 269 744 343 793 c 1,14,15
EndSplineSet
EndChar

StartChar: one
Encoding: 49 49 31
Width: 1200
Flags: HW
LayerCount: 2
Fore
SplineSet
65 0 m 1,0,-1
 65 598 l 2,1,2
 65 658 65 658 13 664 c 1,3,-1
 13 682 l 1,4,-1
 201 780 l 1,5,-1
 201 0 l 1,6,-1
 65 0 l 1,0,-1
EndSplineSet
EndChar

StartChar: two
Encoding: 50 50 32
Width: 1200
Flags: HW
LayerCount: 2
Fore
SplineSet
670 258 m 1,0,1
 651 106 651 106 582 47 c 1,2,3
 519 -12 519 -12 444 -10 c 0,4,5
 409 -9 409 -9 378.5 -7 c 128,-1,6
 348 -5 348 -5 321 0 c 1,7,8
 292 4 292 4 271 7 c 128,-1,9
 250 10 250 10 230.5 12 c 128,-1,10
 211 14 211 14 190 16 c 128,-1,11
 169 18 169 18 140 20 c 0,12,13
 86 25 86 25 28 -13 c 1,14,-1
 -8 19 l 1,15,16
 42 147 42 147 99 255.5 c 128,-1,17
 156 364 156 364 220 457 c 1,18,19
 287 386 287 386 372 388 c 0,20,21
 458 390 458 390 475 478 c 0,22,23
 493 566 493 566 433 664 c 1,24,25
 356 679 356 679 292.5 646 c 128,-1,26
 229 613 229 613 204 554 c 1,27,28
 134 611 134 611 59 632 c 1,29,30
 112 679 112 679 175.5 720 c 128,-1,31
 239 761 239 761 315 796 c 1,32,33
 465 723 465 723 535 659 c 0,34,35
 606 596 606 596 609 503 c 0,36,37
 614 409 614 409 539 307 c 1,38,39
 451 365 451 365 345 344 c 0,40,41
 237 322 237 322 144 111 c 1,42,43
 235 166 235 166 305 160 c 128,-1,44
 375 154 375 154 453.5 132.5 c 128,-1,45
 532 111 532 111 580 167 c 0,46,47
 628 224 628 224 637 265 c 1,48,-1
 670 258 l 1,0,1
EndSplineSet
EndChar

StartChar: three
Encoding: 51 51 33
Width: 1200
Flags: HW
LayerCount: 2
Fore
SplineSet
379 33 m 1,0,1
 406 50 406 50 426.5 74.5 c 128,-1,2
 447 99 447 99 464 129 c 0,3,4
 499 189 499 189 466 274 c 0,5,6
 435 355 435 355 287 371 c 1,7,-1
 288 440 l 1,8,9
 426 484 426 484 430 577 c 0,10,11
 434 668 434 668 404 701 c 1,12,13
 373 733 373 733 297 730 c 0,14,15
 221 728 221 728 181 617 c 1,16,17
 134 607 134 607 32 636 c 1,18,-1
 32 675 l 1,19,20
 58 682 58 682 76 690 c 128,-1,21
 94 698 94 698 105 707 c 0,22,23
 128 725 128 725 209 757 c 1,24,25
 284 789 284 789 400 780 c 0,26,27
 511 772 511 772 548 703 c 0,28,29
 585 635 585 635 553 573.5 c 128,-1,30
 521 512 521 512 428 466 c 1,31,32
 544 455 544 455 602 390 c 1,33,34
 661 329 661 329 629 204 c 0,35,36
 598 83 598 83 356 -27 c 1,37,38
 97 -1 97 -1 27 147 c 1,39,40
 102 159 102 159 176 181 c 1,41,42
 193 72 193 72 379 33 c 1,0,1
EndSplineSet
EndChar

StartChar: four
Encoding: 52 52 34
Width: 1200
Flags: HW
LayerCount: 2
Fore
SplineSet
4 226 m 1,0,1
 173 359 173 359 216 600 c 1,2,3
 224 600 224 600 262 556 c 1,4,5
 303 512 303 512 313 410 c 1,6,7
 201 381 201 381 154 243 c 1,8,-1
 369 250 l 1,9,-1
 369 479 l 1,10,11
 367 576 367 576 325 625 c 1,12,-1
 582 779 l 1,13,14
 514 649 514 649 516 585 c 1,15,-1
 516 257 l 1,16,-1
 669 264 l 1,17,-1
 587 116 l 1,18,-1
 568 116 l 1,19,20
 563 172 563 172 516 171 c 1,21,22
 516 -82 516 -82 326 -190 c 1,23,-1
 326 -162 l 1,24,25
 370 -109 370 -109 369 45 c 1,26,-1
 369 174 l 1,27,-1
 18 169 l 1,28,-1
 4 226 l 1,0,1
EndSplineSet
EndChar

StartChar: five
Encoding: 53 53 35
Width: 1200
Flags: HW
LayerCount: 2
Fore
SplineSet
200 693 m 1,0,1
 147 598 147 598 188 516 c 1,2,3
 231 437 231 437 358 436 c 0,4,5
 482 435 482 435 600 481 c 1,6,7
 644 386 644 386 674 215 c 1,8,9
 647 115 647 115 544 52 c 0,10,11
 492 20 492 20 436.5 -1 c 128,-1,12
 381 -22 381 -22 319 -32 c 1,13,14
 276 -20 276 -20 231 -1 c 128,-1,15
 186 18 186 18 145.5 39.5 c 128,-1,16
 105 61 105 61 73 83.5 c 128,-1,17
 41 106 41 106 23 127 c 1,18,19
 116 159 116 159 184 205 c 1,20,21
 256 85 256 85 340 62 c 0,22,23
 426 38 426 38 521 78 c 1,24,25
 567 206 567 206 505 293 c 1,26,27
 444 381 444 381 300 381 c 1,28,29
 158 382 158 382 78 356 c 1,30,31
 12 581 12 581 109 767 c 1,32,33
 331 752 331 752 620 776 c 1,34,35
 581 625 581 625 504 582 c 1,36,37
 427 696 427 696 200 693 c 1,0,1
EndSplineSet
EndChar

StartChar: six
Encoding: 54 54 36
Width: 1200
Flags: HW
LayerCount: 2
Fore
SplineSet
477 119 m 1,0,1
 483 193 483 193 470 254 c 128,-1,2
 457 315 457 315 421.5 353 c 128,-1,3
 386 391 386 391 327 400.5 c 128,-1,4
 268 410 268 410 184 380 c 1,5,6
 162 331 162 331 164 288 c 128,-1,7
 166 245 166 245 184.5 210.5 c 128,-1,8
 203 176 203 176 234.5 151 c 128,-1,9
 266 126 266 126 306 113.5 c 128,-1,10
 346 101 346 101 390 102 c 128,-1,11
 434 103 434 103 477 119 c 1,0,1
189 426 m 1,12,13
 273 443 273 443 327 524 c 1,14,15
 394 524 394 524 443 502 c 128,-1,16
 492 480 492 480 523 444.5 c 128,-1,17
 554 409 554 409 568.5 362 c 128,-1,18
 583 315 583 315 580.5 266 c 128,-1,19
 578 217 578 217 559.5 169 c 128,-1,20
 541 121 541 121 507 81 c 128,-1,21
 473 41 473 41 423.5 14 c 128,-1,22
 374 -13 374 -13 310 -20 c 1,23,24
 264 41 264 41 200.5 77 c 128,-1,25
 137 113 137 113 54 116 c 1,26,27
 -45 636 -45 636 413 786 c 1,28,-1
 431 756 l 1,29,30
 204 614 204 614 189 426 c 1,12,13
EndSplineSet
EndChar

StartChar: seven
Encoding: 55 55 37
Width: 1200
Flags: HW
LayerCount: 2
Fore
SplineSet
341 20 m 1,0,-1
 341 0 l 1,1,-1
 144 0 l 1,2,3
 118 273 118 273 250 427 c 1,4,5
 318 504 318 504 359 548.5 c 128,-1,6
 400 593 400 593 419 607 c 1,7,8
 333 581 333 581 282 600 c 0,9,10
 256 610 256 610 233.5 615 c 128,-1,11
 211 620 211 620 190 621 c 0,12,13
 155 622 155 622 122 604 c 0,14,15
 108 596 108 596 87.5 575 c 128,-1,16
 67 554 67 554 41 519 c 1,17,-1
 9 542 l 1,18,19
 23 576 23 576 36.5 605 c 128,-1,20
 50 634 50 634 75 676 c 0,21,22
 100 717 100 717 161 746 c 0,23,24
 222 777 222 777 284 762 c 0,25,26
 316 755 316 755 339 749.5 c 128,-1,27
 362 744 362 744 382.5 740.5 c 128,-1,28
 403 737 403 737 423.5 735 c 128,-1,29
 444 733 444 733 469 731 c 0,30,31
 515 728 515 728 555 775 c 1,32,-1
 597 738 l 1,33,34
 260 401 260 401 294 91 c 1,35,36
 298 20 298 20 341 20 c 1,0,-1
EndSplineSet
EndChar

StartChar: eight
Encoding: 56 56 38
Width: 1200
Flags: HW
LayerCount: 2
Fore
SplineSet
159 670 m 1,0,1
 141 632 141 632 147.5 598 c 128,-1,2
 154 564 154 564 176.5 536 c 128,-1,3
 199 508 199 508 233 486.5 c 128,-1,4
 267 465 267 465 305.5 452 c 128,-1,5
 344 439 344 439 382.5 435.5 c 128,-1,6
 421 432 421 432 451 440 c 1,7,8
 478 484 478 484 459 528.5 c 128,-1,9
 440 573 440 573 394 608 c 1,10,11
 348 648 348 648 286.5 660 c 128,-1,12
 225 672 225 672 159 670 c 1,0,1
145 362 m 1,13,14
 131 330 131 330 131.5 300.5 c 128,-1,15
 132 271 132 271 144 243.5 c 128,-1,16
 156 216 156 216 177 192 c 128,-1,17
 198 168 198 168 224 148 c 1,18,19
 252 130 252 130 283 116 c 128,-1,20
 314 102 314 102 345.5 94.5 c 128,-1,21
 377 87 377 87 406.5 86.5 c 128,-1,22
 436 86 436 86 460 94 c 1,23,24
 479 127 479 127 476 163 c 128,-1,25
 473 199 473 199 454 232 c 128,-1,26
 435 265 435 265 402 294.5 c 128,-1,27
 369 324 369 324 327.5 342.5 c 128,-1,28
 286 361 286 361 239 367 c 128,-1,29
 192 373 192 373 145 362 c 1,13,14
316 780 m 1,30,31
 446 726 446 726 498 667 c 0,32,33
 550 607 550 607 550 539 c 0,34,35
 550 470 550 470 450 403 c 1,36,37
 490 390 490 390 529 341 c 0,38,39
 567 294 567 294 567 210 c 256,40,41
 567 126 567 126 484 63.5 c 128,-1,42
 401 1 401 1 289 -13 c 1,43,44
 180 19 180 19 100 84 c 0,45,46
 22 149 22 149 25.5 235 c 128,-1,47
 29 321 29 321 77 356 c 0,48,49
 101 373 101 373 122 386 c 128,-1,50
 143 399 143 399 163 407 c 1,51,52
 134 417 134 417 88 453 c 1,53,54
 41 488 41 488 46 558 c 0,55,56
 51 631 51 631 119 676 c 0,57,58
 154 700 154 700 202.5 725.5 c 128,-1,59
 251 751 251 751 316 780 c 1,30,31
EndSplineSet
EndChar

StartChar: nine
Encoding: 57 57 39
Width: 1200
Flags: HW
LayerCount: 2
Fore
SplineSet
129 647 m 1,0,1
 123 573 123 573 136.5 512.5 c 128,-1,2
 150 452 150 452 185 414 c 128,-1,3
 220 376 220 376 278.5 366 c 128,-1,4
 337 356 337 356 422 386 c 1,5,6
 444 435 444 435 442 478 c 128,-1,7
 440 521 440 521 421.5 556 c 128,-1,8
 403 591 403 591 371.5 615.5 c 128,-1,9
 340 640 340 640 300.5 652.5 c 128,-1,10
 261 665 261 665 216.5 664 c 128,-1,11
 172 663 172 663 129 647 c 1,0,1
417 340 m 1,12,13
 333 323 333 323 280 242 c 1,14,15
 213 242 213 242 164 264 c 128,-1,16
 115 286 115 286 83.5 321.5 c 128,-1,17
 52 357 52 357 38 404 c 128,-1,18
 24 451 24 451 26 500 c 128,-1,19
 28 549 28 549 47 597 c 128,-1,20
 66 645 66 645 99.5 685 c 128,-1,21
 133 725 133 725 182.5 752 c 128,-1,22
 232 779 232 779 296 786 c 1,23,24
 342 725 342 725 405.5 689 c 128,-1,25
 469 653 469 653 552 650 c 1,26,27
 651 130 651 130 194 -20 c 1,28,-1
 175 10 l 1,29,30
 402 152 402 152 417 340 c 1,12,13
EndSplineSet
EndChar

StartChar: colon
Encoding: 58 58 40
Width: 1200
Flags: HW
LayerCount: 2
Fore
SplineSet
95 -8 m 1,0,-1
 15 86 l 1,1,-1
 106 185 l 1,2,-1
 185 98 l 1,3,-1
 95 -8 l 1,0,-1
95 340 m 1,4,-1
 15 434 l 1,5,-1
 106 534 l 1,6,-1
 185 446 l 1,7,-1
 95 340 l 1,4,-1
EndSplineSet
EndChar

StartChar: semicolon
Encoding: 59 59 41
Width: 1200
Flags: HW
LayerCount: 2
Fore
SplineSet
95 340 m 1,0,-1
 15 434 l 1,1,-1
 106 534 l 1,2,-1
 185 446 l 1,3,-1
 95 340 l 1,0,-1
39 -80 m 1,4,-1
 18 -67 l 1,5,-1
 74 18 l 1,6,-1
 13 88 l 1,7,-1
 104 188 l 1,8,-1
 183 99 l 1,9,-1
 39 -80 l 1,4,-1
EndSplineSet
EndChar

StartChar: less
Encoding: 60 60 42
Width: 1200
Flags: HW
LayerCount: 2
Fore
SplineSet
406 524 m 1,0,-1
 487 464 l 1,1,-1
 467 447 l 1,2,3
 406 470 406 470 351 443 c 1,4,-1
 169 345 l 1,5,-1
 472 171 l 1,6,-1
 403 61 l 1,7,-1
 10 302 l 1,8,-1
 406 524 l 1,0,-1
EndSplineSet
EndChar

StartChar: equal
Encoding: 61 61 43
Width: 1200
Flags: HW
LayerCount: 2
Fore
SplineSet
49 273 m 1,0,1
 88 257 88 257 150 257 c 2,2,-1
 294 257 l 2,3,4
 330 257 330 257 368 286 c 1,5,-1
 389 272 l 1,6,-1
 339 139 l 1,7,8
 306 154 306 154 282 155 c 2,9,-1
 93 155 l 2,10,11
 48 155 48 155 19 118 c 1,12,-1
 0 127 l 1,13,-1
 49 273 l 1,0,1
80 458 m 1,14,15
 119 442 119 442 180 441 c 2,16,-1
 325 441 l 2,17,18
 361 441 361 441 398 470 c 1,19,-1
 420 457 l 1,20,-1
 370 324 l 1,21,22
 337 339 337 339 312 339 c 2,23,-1
 124 339 l 2,24,25
 79 339 79 339 50 302 c 1,26,-1
 31 311 l 1,27,-1
 80 458 l 1,14,15
EndSplineSet
EndChar

StartChar: greater
Encoding: 62 62 44
Width: 1200
Flags: HW
LayerCount: 2
Fore
SplineSet
92 61 m 1,0,-1
 10 122 l 1,1,-1
 31 138 l 1,2,3
 92 115 92 115 146 142 c 1,4,-1
 329 241 l 1,5,-1
 26 415 l 1,6,-1
 94 524 l 1,7,-1
 487 284 l 1,8,-1
 92 61 l 1,0,-1
EndSplineSet
EndChar

StartChar: question
Encoding: 63 63 45
Width: 1200
Flags: HW
LayerCount: 2
Fore
SplineSet
372 664 m 1,0,1
 295 679 295 679 231.5 646 c 128,-1,2
 168 613 168 613 142 554 c 1,3,4
 72 611 72 611 -2 632 c 1,5,6
 51 679 51 679 114 720 c 128,-1,7
 177 761 177 761 254 796 c 1,8,9
 404 723 404 723 473 659 c 0,10,11
 544 596 544 596 548 503 c 0,12,13
 553 409 553 409 477 307 c 1,14,15
 348 361 348 361 292 334 c 1,16,17
 236 308 236 308 274 223 c 1,18,-1
 166 223 l 1,19,20
 67 338 67 338 160 442 c 1,21,22
 220 386 220 386 311 388 c 0,23,24
 396 390 396 390 414 479 c 1,25,26
 432 567 432 567 372 664 c 1,0,1
216 -8 m 1,27,-1
 136 86 l 1,28,-1
 227 185 l 1,29,-1
 306 98 l 1,30,-1
 216 -8 l 1,27,-1
EndSplineSet
EndChar

StartChar: at
Encoding: 64 64 46
Width: 1200
Flags: HW
LayerCount: 2
Fore
SplineSet
345 507 m 1,0,1
 331 458 331 458 332 414.5 c 128,-1,2
 333 371 333 371 348 334 c 0,3,4
 362 297 362 297 384.5 277 c 128,-1,5
 407 257 407 257 429 240 c 1,6,7
 462 248 462 248 484 248 c 1,8,-1
 484 391 l 1,9,10
 482 414 482 414 473 437.5 c 128,-1,11
 464 461 464 461 447 478.5 c 128,-1,12
 430 496 430 496 404.5 504.5 c 128,-1,13
 379 513 379 513 345 507 c 1,0,1
501 212 m 1,14,15
 436 203 436 203 383 160 c 1,16,17
 350 172 350 172 322.5 192 c 128,-1,18
 295 212 295 212 275 239 c 128,-1,19
 255 266 255 266 244.5 299 c 128,-1,20
 234 332 234 332 237 371 c 0,21,22
 239 417 239 417 250 448.5 c 128,-1,23
 261 480 261 480 282 505 c 128,-1,24
 303 530 303 530 333.5 551.5 c 128,-1,25
 364 573 364 573 402 599 c 1,26,27
 424 592 424 592 448 572 c 128,-1,28
 472 552 472 552 484 520 c 1,29,-1
 595 585 l 1,30,-1
 595 265 l 1,31,32
 700 334 700 334 679 478 c 1,33,34
 660 621 660 621 582 670 c 0,35,36
 508 716 508 716 433 718 c 0,37,38
 363 719 363 719 278 658 c 0,39,40
 194 599 194 599 164 492 c 0,41,42
 142 415 142 415 148.5 342 c 128,-1,43
 155 269 155 269 185 211 c 128,-1,44
 215 153 215 153 266 113.5 c 128,-1,45
 317 74 317 74 387 62 c 0,46,47
 482 48 482 48 543.5 62.5 c 128,-1,48
 605 77 605 77 642 108 c 1,49,-1
 649 93 l 1,50,51
 597 52 597 52 524.5 26 c 128,-1,52
 452 0 452 0 372 -4 c 0,53,54
 296 -8 296 -8 201 40 c 1,55,56
 111 89 111 89 69.5 168 c 128,-1,57
 28 247 28 247 26 352 c 0,58,59
 25 451 25 451 63 536 c 1,60,61
 101 614 101 614 178 676 c 1,62,63
 253 738 253 738 383 756 c 0,64,65
 517 773 517 773 635 717 c 1,66,67
 759 661 759 661 771 453 c 1,68,69
 785 245 785 245 568 162 c 1,70,-1
 501 212 l 1,14,15
EndSplineSet
EndChar

StartChar: A
Encoding: 65 65 47
Width: 1200
Flags: HW
LayerCount: 2
Fore
SplineSet
284 724 m 1,0,1
 284 534 284 534 259 446 c 1,2,-1
 471 446 l 1,3,-1
 450 644 l 1,4,5
 450 725 450 725 367 724 c 1,6,-1
 284 724 l 1,0,1
-38 124 m 1,7,8
 -3 102 -3 102 49 154 c 1,9,10
 101 203 101 203 159 350 c 0,11,12
 216 496 216 496 226 724 c 1,13,-1
 24 724 l 1,14,-1
 34 772 l 1,15,-1
 634 772 l 1,16,-1
 634 727 l 1,17,18
 592 727 592 727 590 642 c 1,19,-1
 642 162 l 1,20,21
 652 45 652 45 716 45 c 1,22,-1
 717 0 l 1,23,-1
 314 0 l 1,24,-1
 314 43 l 1,25,26
 514 45 514 45 501 155 c 1,27,-1
 483 318 l 1,28,-1
 237 318 l 1,29,30
 184 127 184 127 69 -12 c 1,31,32
 40 15 40 15 8 43.5 c 128,-1,33
 -24 72 -24 72 -58 102 c 1,34,-1
 -38 124 l 1,7,8
EndSplineSet
EndChar

StartChar: B
Encoding: 66 66 48
Width: 1200
Flags: HW
LayerCount: 2
Fore
SplineSet
260 361 m 1,0,-1
 413 468 l 1,1,2
 506 538 506 538 513 603 c 0,3,4
 517 637 517 637 510.5 661 c 128,-1,5
 504 685 504 685 490 701.5 c 128,-1,6
 476 718 476 718 456.5 725.5 c 128,-1,7
 437 733 437 733 416 733 c 0,8,9
 373 735 373 735 322 702 c 0,10,11
 272 670 272 670 260 578 c 1,12,-1
 260 361 l 1,0,-1
465 33 m 1,13,14
 492 50 492 50 513 74.5 c 128,-1,15
 534 99 534 99 550 129 c 0,16,17
 585 189 585 189 552 274 c 0,18,19
 521 355 521 355 389 382 c 1,20,-1
 261 292 l 1,21,-1
 261 206 l 1,22,23
 260 74 260 74 465 33 c 1,13,14
40 675 m 1,24,25
 95 675 95 675 176 708 c 1,26,27
 214 725 214 725 248.5 739.5 c 128,-1,28
 283 754 283 754 313 765 c 0,29,30
 381 789 381 789 485 779 c 1,31,32
 598 771 598 771 634 703 c 0,33,34
 671 635 671 635 639 573.5 c 128,-1,35
 607 512 607 512 514 466 c 1,36,37
 630 455 630 455 687 390 c 1,38,39
 747 325 747 325 715 204 c 1,40,41
 684 83 684 83 442 -27 c 1,42,43
 398 -8 398 -8 354.5 4.5 c 128,-1,44
 311 17 311 17 267 25 c 0,45,46
 188 38 188 38 132 20 c 1,47,48
 85 3 85 3 62 -13 c 1,49,-1
 34 29 l 1,50,51
 106 76 106 76 105 137 c 2,52,-1
 104 549 l 2,53,54
 104 633 104 633 40 636 c 1,55,-1
 40 675 l 1,24,25
EndSplineSet
EndChar

StartChar: C
Encoding: 67 67 49
Width: 1200
Flags: HW
LayerCount: 2
Fore
SplineSet
770 221 m 1,0,1
 704 132 704 132 669 96 c 0,2,3
 625 52 625 52 559 20 c 0,4,5
 489 -14 489 -14 402 -14 c 0,6,7
 308 -16 308 -16 212 46 c 1,8,9
 109 109 109 109 71 239 c 0,10,11
 32 368 32 368 58 475 c 0,12,13
 86 585 86 585 155 653 c 0,14,15
 225 723 225 723 287 751 c 1,16,17
 350 781 350 781 442 781 c 0,18,19
 534 783 534 783 600 754.5 c 128,-1,20
 666 726 666 726 725 670 c 1,21,-1
 590 556 l 1,22,-1
 565 587 l 1,23,24
 574 625 574 625 534.5 661.5 c 128,-1,25
 495 698 495 698 413 693 c 128,-1,26
 331 688 331 688 269 626 c 1,27,28
 209 563 209 563 201 462 c 1,29,30
 194 361 194 361 231 267 c 0,31,32
 250 221 250 221 277.5 188 c 128,-1,33
 305 155 305 155 337.5 133.5 c 128,-1,34
 370 112 370 112 406 103 c 128,-1,35
 442 94 442 94 479 97 c 1,36,37
 535 100 535 100 574.5 116.5 c 128,-1,38
 614 133 614 133 643.5 156.5 c 128,-1,39
 673 180 673 180 694.5 206.5 c 128,-1,40
 716 233 716 233 736 257 c 1,41,-1
 770 221 l 1,0,1
EndSplineSet
EndChar

StartChar: D
Encoding: 68 68 50
Width: 1200
Flags: HW
LayerCount: 2
Fore
SplineSet
264 605 m 1,0,-1
 263 206 l 2,1,2
 263 94 263 94 337 81 c 0,3,4
 411 67 411 67 490 145 c 0,5,6
 570 225 570 225 578 382 c 0,7,8
 586 544 586 544 520 626 c 1,9,10
 455 711 455 711 399 718 c 128,-1,11
 343 725 343 725 304.5 695.5 c 128,-1,12
 266 666 266 666 264 605 c 1,0,-1
772 394 m 1,13,14
 726 248 726 248 626.5 143 c 128,-1,15
 527 38 527 38 364 -15 c 1,16,17
 328 -5 328 -5 279.5 4 c 128,-1,18
 231 13 231 13 193 17 c 0,19,20
 155 21 155 21 126 12.5 c 128,-1,21
 97 4 97 4 69 -16 c 1,22,-1
 39 23 l 1,23,24
 113 92 113 92 113 182 c 2,25,-1
 113 529 l 2,26,27
 113 598 113 598 35 669 c 1,28,-1
 54 703 l 1,29,30
 186 700 186 700 377 799 c 1,31,32
 534 763 534 763 645 631 c 0,33,34
 758 496 758 496 772 394 c 1,13,14
EndSplineSet
EndChar

StartChar: E
Encoding: 69 69 51
Width: 1200
Flags: HW
LayerCount: 2
Fore
SplineSet
737 221 m 1,0,1
 671 132 671 132 636 96 c 0,2,3
 592 52 592 52 526 20 c 0,4,5
 456 -14 456 -14 370 -14 c 0,6,7
 276 -16 276 -16 179 46 c 1,8,9
 76 109 76 109 38 239 c 0,10,11
 -1 368 -1 368 26 475 c 0,12,13
 54 585 54 585 122 653 c 0,14,15
 192 723 192 723 254 751 c 1,16,17
 317 781 317 781 410 781 c 0,18,19
 502 783 502 783 567.5 754.5 c 128,-1,20
 633 726 633 726 692 670 c 1,21,-1
 557 556 l 1,22,-1
 532 587 l 1,23,24
 541 625 541 625 501.5 661.5 c 128,-1,25
 462 698 462 698 380 693 c 128,-1,26
 298 688 298 688 237 626 c 1,27,28
 177 563 177 563 168 462 c 0,29,30
 167 451 167 451 166.5 440.5 c 128,-1,31
 166 430 166 430 166 419 c 1,32,-1
 680 479 l 1,33,-1
 582 292 l 1,34,-1
 563 292 l 1,35,36
 558 343 558 343 498 343 c 1,37,-1
 173 353 l 1,38,39
 177 329 177 329 183.5 308.5 c 128,-1,40
 190 288 190 288 199 267 c 0,41,42
 218 221 218 221 245 188 c 128,-1,43
 272 155 272 155 304.5 133.5 c 128,-1,44
 337 112 337 112 373.5 103 c 128,-1,45
 410 94 410 94 446 97 c 0,46,47
 522 102 522 102 567 129 c 0,48,49
 613 156 613 156 646 190 c 128,-1,50
 679 224 679 224 703 257 c 1,51,-1
 737 221 l 1,0,1
EndSplineSet
EndChar

StartChar: F
Encoding: 70 70 52
Width: 1200
Flags: HW
LayerCount: 2
Fore
SplineSet
18 419 m 1,0,-1
 108 426 l 1,1,-1
 108 441 l 1,2,3
 106 538 106 538 63 587 c 1,4,-1
 390 791 l 1,5,6
 443 664 443 664 569 606 c 1,7,-1
 434 514 l 1,8,9
 358 556 358 556 328 677 c 1,10,11
 253 611 253 611 255 547 c 1,12,-1
 255 439 l 1,13,-1
 514 463 l 1,14,-1
 427 292 l 1,15,-1
 409 292 l 1,16,17
 404 343 404 343 343 343 c 1,18,-1
 255 346 l 1,19,-1
 255 163 l 2,20,21
 255 -82 255 -82 65 -190 c 1,22,-1
 65 -162 l 1,23,24
 109 -109 109 -109 108 45 c 1,25,-1
 108 350 l 1,26,-1
 18 353 l 1,27,-1
 18 419 l 1,0,-1
EndSplineSet
EndChar

StartChar: G
Encoding: 71 71 53
Width: 1200
Flags: HW
LayerCount: 2
Fore
SplineSet
543 589 m 1,0,1
 550 626 550 626 511 662 c 1,2,3
 473 699 473 699 390 693 c 0,4,5
 308 688 308 688 247 626 c 1,6,7
 187 563 187 563 178 462 c 1,8,9
 171 361 171 361 209 267 c 0,10,11
 228 221 228 221 255.5 188 c 128,-1,12
 283 155 283 155 315 133.5 c 128,-1,13
 347 112 347 112 383.5 103 c 128,-1,14
 420 94 420 94 457 97 c 1,15,16
 532 101 532 101 610 159 c 0,17,18
 688 215 688 215 682 330 c 1,19,-1
 392 330 l 1,20,21
 321 331 321 331 286 294 c 1,22,-1
 271 315 l 1,23,-1
 543 589 l 1,0,1
775 410 m 1,24,25
 758 270 758 270 693 174 c 1,26,27
 631 78 631 78 549 32 c 0,28,29
 467 -13 467 -13 380 -14 c 0,30,31
 286 -16 286 -16 189 46 c 1,32,33
 86 109 86 109 48 239 c 0,34,35
 9 368 9 368 36 475 c 0,36,37
 64 585 64 585 132 653 c 0,38,39
 202 723 202 723 264 751 c 1,40,41
 327 781 327 781 420 781 c 0,42,43
 512 783 512 783 577.5 754.5 c 128,-1,44
 643 726 643 726 702 670 c 1,45,-1
 470 451 l 1,46,-1
 717 451 l 2,47,48
 759 451 759 451 791 482 c 1,49,-1
 812 456 l 1,50,51
 798 420 798 420 775 410 c 1,24,25
EndSplineSet
EndChar

StartChar: H
Encoding: 72 72 54
Width: 1200
Flags: HW
LayerCount: 2
Fore
SplineSet
37 33 m 1,0,1
 96 71 96 71 96 134 c 2,2,-1
 96 637 l 2,3,4
 96 660 96 660 49 693 c 1,5,-1
 66 715 l 1,6,7
 163 703 163 703 237 771 c 1,8,-1
 599 771 l 1,9,-1
 599 726 l 1,10,-1
 430 726 l 2,11,12
 246 726 246 726 246 637 c 2,13,-1
 246 583 l 1,14,15
 366 601 366 601 443 667 c 1,16,17
 603 645 603 645 656 481 c 0,18,19
 709 318 709 318 610 177 c 1,20,21
 509 36 509 36 346 -42 c 1,22,-1
 319 -16 l 1,23,24
 422 47 422 47 485 151 c 0,25,26
 547 253 547 253 525 375 c 0,27,28
 501 497 501 497 423 527 c 1,29,30
 352 556 352 556 246 489 c 1,31,-1
 246 169 l 1,32,33
 245 65 245 65 281 33 c 1,34,-1
 280 -1 l 1,35,-1
 37 -1 l 1,36,-1
 37 33 l 1,0,1
EndSplineSet
EndChar

StartChar: I
Encoding: 73 73 55
Width: 1200
Flags: HW
LayerCount: 2
Fore
SplineSet
145 646 m 2,0,1
 145 722 145 722 9 740 c 1,2,3
 -57 740 -57 740 -56 787 c 0,4,5
 -56 827 -56 827 6 827 c 0,6,7
 64 827 64 827 81 771 c 1,8,-1
 408 771 l 1,9,-1
 408 728 l 1,10,11
 295 728 295 728 295 658 c 2,12,-1
 295 126 l 2,13,14
 295 49 295 49 431 31 c 1,15,16
 497 31 497 31 497 -16 c 0,17,18
 497 -56 497 -56 434 -56 c 0,19,20
 376 -56 376 -56 359 0 c 1,21,-1
 33 0 l 1,22,-1
 33 43 l 1,23,24
 146 43 146 43 145 114 c 2,25,-1
 145 646 l 2,0,1
EndSplineSet
EndChar

StartChar: J
Encoding: 74 74 56
Width: 1200
Flags: HW
LayerCount: 2
Fore
SplineSet
380 664 m 1,0,1
 334 639 334 639 295.5 628.5 c 128,-1,2
 257 618 257 618 210 621 c 0,3,4
 187 622 187 622 167.5 624.5 c 128,-1,5
 148 627 148 627 131 632 c 1,6,7
 104 642 104 642 48 636 c 0,8,9
 -1 631 -1 631 -34 604 c 1,10,-1
 -58 622 l 1,11,12
 -8 706 -8 706 37 739 c 1,13,14
 79 772 79 772 127 786 c 1,15,16
 201 732 201 732 309 728 c 0,17,18
 418 723 418 723 473 773 c 1,19,-1
 495 755 l 1,20,21
 455 684 455 684 455 596 c 2,22,-1
 455 172 l 1,23,24
 409 -83 409 -83 134 -190 c 1,25,-1
 134 -150 l 1,26,27
 215 -117 215 -117 274 12 c 0,28,29
 333 142 333 142 296 295 c 0,30,31
 258 450 258 450 193 527 c 1,32,33
 310 550 310 550 380 664 c 1,0,1
EndSplineSet
EndChar

StartChar: K
Encoding: 75 75 57
Width: 1200
Flags: HW
LayerCount: 2
Fore
SplineSet
306 772 m 1,0,-1
 306 731 l 1,1,2
 248 720 248 720 248 646 c 2,3,-1
 248 452 l 1,4,5
 374 522 374 522 571 786 c 1,6,-1
 690 692 l 1,7,-1
 603 600 l 1,8,9
 538 681 538 681 427 526 c 1,10,11
 475 492 475 492 546 396 c 0,12,13
 584 344 584 344 612 300.5 c 128,-1,14
 640 257 640 257 657.5 219 c 128,-1,15
 675 181 675 181 689 126.5 c 128,-1,16
 703 72 703 72 714 0 c 1,17,-1
 489 0 l 1,18,-1
 489 12 l 1,19,-1
 499 24 l 1,20,21
 512 37 512 37 520 60 c 0,22,23
 527 83 527 83 503 171 c 0,24,25
 479 259 479 259 409 332 c 0,26,27
 337 406 337 406 303 407 c 1,28,29
 268 410 268 410 247 381 c 1,30,-1
 247 116 l 2,31,32
 247 48 247 48 302 33 c 1,33,-1
 302 0 l 1,34,-1
 40 0 l 1,35,-1
 40 33 l 1,36,37
 95 49 95 49 95 118 c 2,38,-1
 95 663 l 2,39,40
 95 731 95 731 48 731 c 1,41,-1
 48 772 l 1,42,-1
 306 772 l 1,0,-1
EndSplineSet
EndChar

StartChar: L
Encoding: 76 76 58
Width: 1200
Flags: HW
LayerCount: 2
Fore
SplineSet
643 191 m 1,0,1
 616 130 616 130 591.5 91.5 c 128,-1,2
 567 53 567 53 547 36 c 0,3,4
 504 0 504 0 458 -5 c 128,-1,5
 412 -10 412 -10 351 -4 c 0,6,7
 321 -2 321 -2 294 0 c 128,-1,8
 267 2 267 2 244 3 c 0,9,10
 237 4 237 4 230 4 c 256,11,12
 224 4 224 4 219 4 c 2,13,-1
 199 4 l 2,14,15
 168 4 168 4 136.5 -0.5 c 128,-1,16
 105 -5 105 -5 53 -13 c 1,17,-1
 30 26 l 1,18,19
 64 59 64 59 79.5 95.5 c 128,-1,20
 95 132 95 132 95 178 c 2,21,-1
 95 490 l 2,22,23
 95 571 95 571 44 598 c 1,24,-1
 48 628 l 1,25,26
 136 652 136 652 216 705 c 0,27,28
 256 732 256 732 293 749.5 c 128,-1,29
 330 767 330 767 364 777 c 0,30,31
 434 797 434 797 505.5 738 c 128,-1,32
 577 679 577 679 597 605 c 1,33,34
 559 598 559 598 522 583.5 c 128,-1,35
 485 569 485 569 450 549 c 1,36,37
 456 623 456 623 394 653 c 1,38,39
 335 685 335 685 258 682 c 1,40,41
 253 649 253 649 250 614.5 c 128,-1,42
 247 580 247 580 247 544 c 2,43,-1
 247 236 l 2,44,45
 247 190 247 190 189 114 c 1,46,-1
 191 115 l 1,47,48
 251 151 251 151 311 151 c 0,49,50
 365 151 365 151 438 129 c 0,51,52
 510 107 510 107 613 215 c 1,53,-1
 643 191 l 1,0,1
EndSplineSet
EndChar

StartChar: M
Encoding: 77 77 59
Width: 1200
Flags: HW
LayerCount: 2
Fore
SplineSet
197 124 m 2,0,1
 197 -59 197 -59 67 -193 c 1,2,-1
 44 -179 l 1,3,4
 112 -70 112 -70 112 111 c 2,5,-1
 111 617 l 2,6,7
 111 703 111 703 67 717 c 1,8,-1
 67 773 l 1,9,-1
 283 773 l 1,10,-1
 472 372 l 1,11,-1
 612 657 l 2,12,13
 629 694 629 694 614.5 708.5 c 128,-1,14
 600 723 600 723 567 722 c 1,15,-1
 567 772 l 1,16,-1
 868 772 l 1,17,-1
 868 727 l 1,18,19
 812 726 812 726 812 656 c 2,20,-1
 812 160 l 2,21,22
 812 40 812 40 884 39 c 1,23,-1
 884 -1 l 1,24,-1
 597 -1 l 1,25,-1
 597 47 l 1,26,27
 659 47 659 47 659 151 c 2,28,-1
 659 588 l 1,29,-1
 431 89 l 1,30,-1
 197 565 l 1,31,-1
 197 124 l 2,0,1
EndSplineSet
EndChar

StartChar: N
Encoding: 78 78 60
Width: 1200
Flags: HW
LayerCount: 2
Fore
SplineSet
112 642 m 2,0,1
 112 708 112 708 42 720 c 1,2,-1
 42 751 l 1,3,-1
 225 791 l 1,4,-1
 626 295 l 1,5,-1
 626 679 l 2,6,7
 626 731 626 731 556 731 c 1,8,-1
 556 772 l 1,9,-1
 772 772 l 1,10,-1
 773 731 l 1,11,12
 704 730 704 730 705 690 c 2,13,-1
 706 0 l 1,14,-1
 626 0 l 1,15,-1
 626 51 l 1,16,-1
 196 590 l 1,17,-1
 196 122 l 2,18,19
 196 -24 196 -24 68 -193 c 1,20,-1
 45 -179 l 1,21,22
 112 -34 112 -34 112 111 c 2,23,-1
 112 457 l 1,24,-1
 112 642 l 2,0,1
EndSplineSet
EndChar

StartChar: O
Encoding: 79 79 61
Width: 1200
Flags: HW
LayerCount: 2
Fore
SplineSet
171 597 m 1,0,1
 123 516 123 516 130 445 c 0,2,3
 138 368 138 368 172.5 310 c 128,-1,4
 207 252 207 252 263 203 c 0,5,6
 304 168 304 168 349.5 143.5 c 128,-1,7
 395 119 395 119 439.5 107.5 c 128,-1,8
 484 96 484 96 524.5 99.5 c 128,-1,9
 565 103 565 103 596 125 c 1,10,11
 624 175 624 175 630 247 c 0,12,13
 637 319 637 319 619.5 384.5 c 128,-1,14
 602 450 602 450 559 505 c 0,15,16
 539 533 539 533 513.5 556 c 128,-1,17
 488 579 488 579 460 598 c 0,18,19
 404 636 404 636 332 643 c 0,20,21
 261 650 261 650 171 597 c 1,0,1
401 793 m 1,22,23
 578 700 578 700 648 587 c 0,24,25
 719 473 719 473 719 343 c 256,26,27
 719 213 719 213 614 115 c 1,28,29
 511 15 511 15 368 -11 c 1,30,31
 230 40 230 40 128 141 c 1,32,33
 28 244 28 244 34 379 c 0,34,35
 40 515 40 515 132 606 c 1,36,37
 223 695 223 695 401 793 c 1,22,23
EndSplineSet
EndChar

StartChar: P
Encoding: 80 80 62
Width: 1200
Flags: HW
LayerCount: 2
Fore
SplineSet
262 206 m 2,0,1
 262 94 262 94 336 81 c 0,2,3
 410 67 410 67 489 145 c 0,4,5
 569 225 569 225 577 382 c 0,6,7
 585 544 585 544 519 626 c 1,8,9
 454 711 454 711 398 718 c 0,10,11
 347 725 347 725 303 695 c 1,12,13
 264 665 264 665 263 605 c 2,14,-1
 262 206 l 2,0,1
771 394 m 1,15,16
 725 248 725 248 625.5 143 c 128,-1,17
 526 38 526 38 362 -15 c 1,18,19
 345 -10 345 -10 323.5 -5.5 c 128,-1,20
 302 -1 302 -1 279 4 c 1,21,22
 268 5 268 5 260 7 c 1,23,-1
 260 -94 l 2,24,25
 260 -111 260 -111 265.5 -123.5 c 128,-1,26
 271 -136 271 -136 280 -144 c 0,27,28
 289 -154 289 -154 298.5 -158.5 c 128,-1,29
 308 -163 308 -163 316 -165 c 1,30,-1
 316 -190 l 1,31,-1
 112 -190 l 1,32,-1
 112 529 l 2,33,34
 112 598 112 598 34 669 c 1,35,-1
 53 703 l 1,36,37
 185 700 185 700 376 799 c 1,38,39
 533 763 533 763 644 631 c 0,40,41
 757 496 757 496 771 394 c 1,15,16
EndSplineSet
EndChar

StartChar: Q
Encoding: 81 81 63
Width: 1200
Flags: HW
LayerCount: 2
Fore
SplineSet
123 597 m 1,0,1
 75 516 75 516 82 445 c 0,2,3
 90 368 90 368 124 310 c 128,-1,4
 158 252 158 252 215 203 c 0,5,6
 256 168 256 168 301.5 143.5 c 128,-1,7
 347 119 347 119 391.5 107.5 c 128,-1,8
 436 96 436 96 476.5 99.5 c 128,-1,9
 517 103 517 103 548 125 c 1,10,11
 561 150 561 150 570 181.5 c 128,-1,12
 579 213 579 213 582 247 c 128,-1,13
 585 281 585 281 582.5 316 c 128,-1,14
 580 351 580 351 570 384 c 0,15,16
 553 450 553 450 511 505 c 0,17,18
 472 555 472 555 411 598 c 1,19,20
 356 635 356 635 284 643 c 0,21,22
 213 650 213 650 123 597 c 1,0,1
353 792 m 1,23,24
 523 707 523 707 608 603 c 1,25,26
 692 506 692 506 681 344 c 0,27,28
 671 187 671 187 557 105 c 1,29,30
 540 4 540 4 589 -65 c 0,31,32
 643 -141 643 -141 723 -159 c 1,33,-1
 710 -190 l 1,34,35
 627 -204 627 -204 540 -142 c 1,36,37
 457 -86 457 -86 421 18 c 1,38,39
 397 8 397 8 371.5 1 c 128,-1,40
 346 -6 346 -6 319 -11 c 1,41,42
 181 40 181 40 80 141 c 1,43,44
 -20 244 -20 244 -14 379 c 0,45,46
 -8 515 -8 515 84 606 c 0,47,48
 130 652 130 652 196.5 697.5 c 128,-1,49
 263 743 263 743 353 792 c 1,23,24
EndSplineSet
EndChar

StartChar: R
Encoding: 82 82 64
Width: 1200
Flags: HW
LayerCount: 2
Fore
SplineSet
414 468 m 1,0,1
 506 537 506 537 514 603 c 0,2,3
 518 637 518 637 511.5 661 c 128,-1,4
 505 685 505 685 491 701.5 c 128,-1,5
 477 718 477 718 457.5 725.5 c 128,-1,6
 438 733 438 733 417 733 c 0,7,8
 374 735 374 735 322.5 702.5 c 128,-1,9
 271 670 271 670 261 578 c 1,10,-1
 261 361 l 1,11,-1
 414 468 l 1,0,1
41 675 m 1,12,13
 94 675 94 675 177 708 c 1,14,15
 215 725 215 725 249.5 739.5 c 128,-1,16
 284 754 284 754 314 765 c 0,17,18
 383 789 383 789 486 779 c 1,19,20
 599 771 599 771 635 703 c 1,21,22
 672 636 672 636 639 573 c 1,23,24
 606 513 606 513 515 466 c 1,25,-1
 426 404 l 1,26,27
 499 263 499 263 600 174 c 1,28,29
 666 102 666 102 749 171 c 1,30,-1
 770 146 l 1,31,32
 738 119 738 119 693 76 c 128,-1,33
 648 33 648 33 589 -27 c 1,34,35
 515 82 515 82 447 169.5 c 128,-1,36
 379 257 379 257 316 329 c 1,37,-1
 262 292 l 1,38,-1
 262 206 l 1,39,40
 260 118 260 118 352 70 c 1,41,-1
 352 6 l 1,42,43
 311 18 311 18 268 25 c 1,44,45
 192 38 192 38 133 20 c 1,46,47
 87 4 87 4 63 -13 c 1,48,-1
 35 29 l 1,49,50
 107 76 107 76 106 137 c 2,51,-1
 105 549 l 2,52,53
 105 633 105 633 41 636 c 1,54,-1
 41 675 l 1,12,13
EndSplineSet
EndChar

StartChar: S
Encoding: 83 83 65
Width: 1200
Flags: HW
LayerCount: 2
Fore
SplineSet
209 651 m 1,0,1
 156 540 156 540 202 465 c 1,2,3
 249 390 249 390 376 388 c 0,4,5
 509 386 509 386 618 432 c 1,6,7
 663 333 663 333 670 215 c 1,8,9
 670 124 670 124 552 55 c 1,10,11
 494 22 494 22 435.5 0 c 128,-1,12
 377 -22 377 -22 315 -32 c 1,13,14
 256 -15 256 -15 198 11.5 c 128,-1,15
 140 38 140 38 84 74 c 0,16,17
 43 100 43 100 18 127 c 1,18,19
 111 159 111 159 180 205 c 1,20,21
 251 86 251 86 335 63 c 1,22,23
 427 39 427 39 517 78 c 1,24,25
 551 205 551 205 479 266 c 0,26,27
 408 327 408 327 293 330 c 0,28,29
 172 333 172 333 96 307 c 1,30,31
 20 415 20 415 25 503 c 0,32,33
 29 596 29 596 135 659 c 0,34,35
 188 691 188 691 252 725.5 c 128,-1,36
 316 760 316 760 391 796 c 1,37,38
 468 761 468 761 531 720 c 128,-1,39
 594 679 594 679 647 632 c 1,40,41
 572 612 572 612 503 554 c 1,42,43
 476 614 476 614 396 653 c 1,44,45
 312 692 312 692 209 651 c 1,0,1
EndSplineSet
EndChar

StartChar: T
Encoding: 84 84 66
Width: 1200
Flags: HW
LayerCount: 2
Fore
SplineSet
752 196 m 1,0,1
 734 167 734 167 716 142.5 c 128,-1,2
 698 118 698 118 678 96.5 c 128,-1,3
 658 75 658 75 634.5 56 c 128,-1,4
 611 37 611 37 581 20 c 0,5,6
 520 -14 520 -14 440 -14 c 0,7,8
 356 -16 356 -16 271 46 c 1,9,10
 182 108 182 108 138 238 c 1,11,12
 96 366 96 366 123 478 c 0,13,14
 151 592 151 592 231 657 c 1,15,16
 152 657 152 657 108 646 c 1,17,18
 73 636 73 636 33 587 c 1,19,-1
 3 605 l 1,20,21
 26 671 26 671 138.5 737.5 c 128,-1,22
 251 804 251 804 675 758 c 1,23,-1
 596 596 l 1,24,25
 441 646 441 646 317 654 c 1,26,27
 246 591 246 591 236 477 c 0,28,29
 226 365 226 365 274 271 c 0,30,31
 300 224 300 224 328.5 192 c 128,-1,32
 357 160 357 160 389 140 c 0,33,34
 422 121 422 121 455.5 110.5 c 128,-1,35
 489 100 489 100 522 98 c 0,36,37
 589 95 589 95 629 120 c 0,38,39
 669 146 669 146 718 219 c 1,40,-1
 752 196 l 1,0,1
EndSplineSet
EndChar

StartChar: U
Encoding: 85 85 67
Width: 1200
Flags: HW
LayerCount: 2
Fore
SplineSet
523 652 m 1,0,1
 522 717 522 717 452 731 c 1,2,-1
 452 773 l 1,3,-1
 735 773 l 1,4,-1
 735 736 l 1,5,6
 669 733 669 733 670 659 c 2,7,-1
 670 178 l 2,8,9
 670 112 670 112 738 97 c 1,10,-1
 737 69 l 1,11,-1
 624 -15 l 1,12,13
 535 20 535 20 525 102 c 1,14,15
 500 52 500 52 461 28.5 c 128,-1,16
 422 5 422 5 357 -3 c 0,17,18
 287 -11 287 -11 223 20 c 1,19,20
 152 53 152 53 95 142 c 1,21,22
 38 233 38 233 46 366 c 0,23,24
 55 503 55 503 99 585 c 0,25,26
 122 629 122 629 141.5 663 c 128,-1,27
 161 697 161 697 178 723 c 1,28,-1
 53 723 l 1,29,-1
 52 773 l 1,30,-1
 383 773 l 1,31,-1
 383 731 l 1,32,33
 272 703 272 703 232 600 c 1,34,35
 193 491 193 491 197 390 c 0,36,37
 200 285 200 285 248 215 c 128,-1,38
 296 145 296 145 372 135 c 0,39,40
 447 125 447 125 485 165 c 0,41,42
 523 203 523 203 523 265 c 2,43,-1
 523 652 l 1,0,1
EndSplineSet
EndChar

StartChar: V
Encoding: 86 86 68
Width: 1200
Flags: HW
LayerCount: 2
Fore
SplineSet
209 764 m 1,0,1
 302 682 302 682 312 474 c 0,2,3
 323 265 323 265 486 114 c 1,4,5
 623 229 623 229 641 356 c 1,6,7
 659 483 659 483 586 574 c 0,8,9
 512 664 512 664 373 630 c 1,10,-1
 369 650 l 1,11,12
 456 700 456 700 493 773 c 1,13,14
 609 781 609 781 685 712 c 1,15,16
 763 643 763 643 754 498 c 0,17,18
 746 354 746 354 671 239 c 0,19,20
 633 183 633 183 569.5 118.5 c 128,-1,21
 506 54 506 54 413 -17 c 1,22,-1
 398 -17 l 1,23,24
 160 217 160 217 161 434 c 0,25,26
 161 650 161 650 43 733 c 1,27,-1
 43 764 l 1,28,-1
 209 764 l 1,0,1
EndSplineSet
EndChar

StartChar: W
Encoding: 87 87 69
Width: 1200
Flags: HW
LayerCount: 2
Fore
SplineSet
196 764 m 1,0,1
 289 682 289 682 299 474 c 0,2,3
 310 265 310 265 473 114 c 1,4,5
 609 229 609 229 608 366 c 0,6,7
 606 504 606 504 526 584 c 1,8,9
 447 665 447 665 308 630 c 1,10,-1
 304 650 l 1,11,12
 391 700 391 700 428 773 c 1,13,14
 544 781 544 781 621 712 c 1,15,16
 700 642 700 642 710 544 c 0,17,18
 721 438 721 438 715 397 c 1,19,20
 748 236 748 236 880 114 c 1,21,22
 1016 229 1016 229 1015 366 c 0,23,24
 1013 504 1013 504 933 584 c 1,25,26
 854 665 854 665 715 630 c 1,27,-1
 711 650 l 1,28,29
 798 700 798 700 835 773 c 1,30,31
 893 777 893 777 941.5 761.5 c 128,-1,32
 990 746 990 746 1027.5 711.5 c 128,-1,33
 1065 677 1065 677 1089 623 c 128,-1,34
 1113 569 1113 569 1121 498 c 0,35,36
 1138 348 1138 348 1064 239 c 0,37,38
 1026 183 1026 183 962.5 118.5 c 128,-1,39
 899 54 899 54 806 -17 c 1,40,-1
 792 -17 l 1,41,42
 670 105 670 105 630 201 c 1,43,44
 553 101 553 101 399 -17 c 1,45,-1
 385 -17 l 1,46,47
 147 217 147 217 147 434 c 0,48,49
 147 650 147 650 30 733 c 1,50,-1
 30 764 l 1,51,-1
 196 764 l 1,0,1
EndSplineSet
EndChar

StartChar: X
Encoding: 88 88 70
Width: 1200
Flags: HW
LayerCount: 2
Fore
SplineSet
34 25 m 1,0,1
 173 78 173 78 310 378 c 1,2,-1
 186 564 l 1,3,4
 151 635 151 635 54 640 c 1,5,-1
 43 660 l 1,6,-1
 136 774 l 1,7,-1
 301 676 l 1,8,-1
 388 530 l 1,9,10
 509 715 509 715 640 776 c 1,11,12
 659 722 659 722 695 663 c 1,13,14
 531 597 531 597 439 416 c 1,15,-1
 609 129 l 1,16,17
 644 83 644 83 721 81 c 1,18,-1
 735 52 l 1,19,-1
 626 -14 l 1,20,-1
 459 76 l 1,21,-1
 349 288 l 1,22,23
 212 31 212 31 47 0 c 1,24,-1
 34 25 l 1,0,1
EndSplineSet
EndChar

StartChar: Y
Encoding: 89 89 71
Width: 1200
Flags: HW
LayerCount: 2
Fore
SplineSet
156 764 m 1,0,1
 249 682 249 682 259 474 c 0,2,3
 270 265 270 265 433 114 c 1,4,5
 570 229 570 229 588 356 c 1,6,7
 606 483 606 483 532 574 c 0,8,9
 458 664 458 664 319 630 c 1,10,-1
 315 650 l 1,11,12
 402 700 402 700 439 773 c 1,13,14
 555 781 555 781 632 712 c 1,15,16
 710 643 710 643 700 498 c 0,17,18
 692 354 692 354 617 239 c 1,19,20
 545 133 545 133 404 18 c 1,21,22
 389 -5 389 -5 397 -35 c 0,23,24
 406 -67 406 -67 460 -67 c 0,25,26
 512 -67 512 -67 597 3 c 1,27,-1
 626 -14 l 1,28,29
 545 -155 545 -155 418 -178 c 0,30,31
 353 -189 353 -189 318 -156 c 1,32,33
 281 -123 281 -123 278.5 -78 c 128,-1,34
 276 -33 276 -33 321 7 c 1,35,36
 108 229 108 229 108 434 c 0,37,38
 108 650 108 650 -10 733 c 1,39,-1
 -10 764 l 1,40,-1
 156 764 l 1,0,1
EndSplineSet
EndChar

StartChar: Z
Encoding: 90 90 72
Width: 1200
Flags: HW
LayerCount: 2
Fore
SplineSet
714 258 m 1,0,1
 695 106 695 106 626 47 c 1,2,3
 563 -12 563 -12 488 -10 c 0,4,5
 419 -9 419 -9 346 2 c 0,6,7
 310 8 310 8 274.5 12.5 c 128,-1,8
 239 17 239 17 203 19 c 0,9,10
 126 24 126 24 72 -13 c 1,11,-1
 36 19 l 1,12,13
 154 218 154 218 237.5 337.5 c 128,-1,14
 321 457 321 457 371 504 c 1,15,16
 423 551 423 551 448.5 575 c 128,-1,17
 474 599 474 599 475 600 c 1,18,19
 390 580 390 580 325 600 c 0,20,21
 266 619 266 619 220 620 c 1,22,23
 181 622 181 622 152 604 c 0,24,25
 138 596 138 596 117 575 c 128,-1,26
 96 554 96 554 71 519 c 1,27,-1
 39 542 l 1,28,29
 52 575 52 575 66 605.5 c 128,-1,30
 80 636 80 636 96 663 c 0,31,32
 129 717 129 717 189 746 c 0,33,34
 252 777 252 777 333 758 c 0,35,36
 376 748 376 748 414.5 741.5 c 128,-1,37
 453 735 453 735 489 731 c 1,38,39
 566 725 566 725 623 775 c 1,40,-1
 665 738 l 1,41,42
 368 435 368 435 244 178 c 1,43,-1
 246 179 l 1,44,45
 292 190 292 190 352.5 180.5 c 128,-1,46
 413 171 413 171 494 152 c 0,47,48
 575 134 575 134 623 178 c 0,49,50
 672 224 672 224 681 265 c 1,51,-1
 714 258 l 1,0,1
EndSplineSet
EndChar

StartChar: bracketleft
Encoding: 91 91 73
Width: 1200
Flags: HW
LayerCount: 2
Fore
SplineSet
371 851 m 1,0,1
 251 792 251 792 162 800 c 1,2,-1
 162 -19 l 1,3,4
 257 0 257 0 360 -58 c 1,5,-1
 349 -81 l 1,6,7
 249 -30 249 -30 74 -79 c 1,8,-1
 74 874 l 1,9,10
 221 819 221 819 358 867 c 1,11,-1
 371 851 l 1,0,1
EndSplineSet
EndChar

StartChar: backslash
Encoding: 92 92 74
Width: 1200
Flags: HW
LayerCount: 2
Fore
SplineSet
58 857 m 1,0,-1
 410 -124 l 1,1,-1
 336 -124 l 1,2,-1
 -8 857 l 1,3,-1
 58 857 l 1,0,-1
EndSplineSet
EndChar

StartChar: bracketright
Encoding: 93 93 75
Width: 1200
Flags: HW
LayerCount: 2
Fore
SplineSet
53 -58 m 1,0,1
 173 1 173 1 262 -7 c 1,2,-1
 262 812 l 1,3,4
 167 793 167 793 63 851 c 1,5,-1
 75 873 l 1,6,7
 175 822 175 822 350 871 c 1,8,-1
 350 -82 l 1,9,10
 203 -27 203 -27 66 -75 c 1,11,-1
 53 -58 l 1,0,1
EndSplineSet
EndChar

StartChar: asciicircum
Encoding: 94 94 76
Width: 1200
Flags: HW
LayerCount: 2
Fore
SplineSet
318 443 m 1,0,-1
 300 421 l 1,1,-1
 199 620 l 1,2,-1
 83 418 l 1,3,-1
 10 464 l 1,4,-1
 170 725 l 1,5,-1
 318 443 l 1,0,-1
EndSplineSet
EndChar

StartChar: underscore
Encoding: 95 95 77
Width: 1200
Flags: HW
LayerCount: 2
Fore
SplineSet
0 -128 m 1,0,-1
 410 -128 l 1,1,-1
 410 -186 l 1,2,-1
 0 -186 l 1,3,-1
 0 -128 l 1,0,-1
EndSplineSet
EndChar

StartChar: grave
Encoding: 96 96 78
Width: 1200
Flags: HW
LayerCount: 2
Fore
SplineSet
74 995 m 1,0,-1
 232 877 l 1,1,-1
 205 851 l 1,2,-1
 17 932 l 1,3,-1
 74 995 l 1,0,-1
EndSplineSet
EndChar

StartChar: a
Encoding: 97 97 79
Width: 1200
Flags: HW
LayerCount: 2
Fore
SplineSet
236 247 m 1,0,1
 168 199 168 199 169 143 c 1,2,3
 171 90 171 90 233 83 c 1,4,-1
 298 110 l 1,5,-1
 298 274 l 1,6,-1
 236 247 l 1,0,1
298 351 m 1,7,8
 291 398 291 398 247 417 c 1,9,10
 178 373 178 373 76 354 c 1,11,-1
 50 392 l 1,12,13
 178 443 178 443 246 534 c 1,14,15
 292 496 292 496 338.5 464.5 c 128,-1,16
 385 433 385 433 434 410 c 1,17,-1
 434 141 l 1,18,19
 435 73 435 73 498 74 c 1,20,-1
 498 49 l 1,21,-1
 403 -9 l 1,22,-1
 299 69 l 1,23,-1
 156 -22 l 1,24,25
 53 0 53 0 39 92 c 0,26,27
 25 185 25 185 105 245 c 1,28,-1
 298 318 l 1,29,-1
 298 351 l 1,7,8
EndSplineSet
EndChar

StartChar: b
Encoding: 98 98 80
Width: 1200
Flags: HW
LayerCount: 2
Fore
SplineSet
417 127 m 1,0,1
 442 181 442 181 432.5 234.5 c 128,-1,2
 423 288 423 288 390 326.5 c 128,-1,3
 357 365 357 365 306.5 381.5 c 128,-1,4
 256 398 256 398 198 380 c 1,5,6
 198 363 198 363 195.5 336 c 128,-1,7
 193 309 193 309 194.5 279.5 c 128,-1,8
 196 250 196 250 205.5 220 c 128,-1,9
 215 190 215 190 239.5 167.5 c 128,-1,10
 264 145 264 145 306.5 133.5 c 128,-1,11
 349 122 349 122 417 127 c 1,0,1
202 426 m 1,12,13
 225 435 225 435 241.5 445 c 128,-1,14
 258 455 258 455 272 466.5 c 128,-1,15
 286 478 286 478 299 492 c 128,-1,16
 312 506 312 506 329 524 c 1,17,18
 386 525 386 525 425 504 c 128,-1,19
 464 483 464 483 487 447.5 c 128,-1,20
 510 412 510 412 517 365 c 128,-1,21
 524 318 524 318 517 269 c 128,-1,22
 510 220 510 220 490 171.5 c 128,-1,23
 470 123 470 123 438.5 82.5 c 128,-1,24
 407 42 407 42 364.5 14.5 c 128,-1,25
 322 -13 322 -13 269 -22 c 1,26,27
 250 6 250 6 229.5 28.5 c 128,-1,28
 209 51 209 51 185.5 68.5 c 128,-1,29
 162 86 162 86 132.5 98 c 128,-1,30
 103 110 103 110 66 116 c 1,31,-1
 66 598 l 2,32,33
 66 658 66 658 14 664 c 1,34,-1
 14 682 l 1,35,-1
 202 780 l 1,36,-1
 202 426 l 1,12,13
EndSplineSet
EndChar

StartChar: c
Encoding: 99 99 81
Width: 1200
Flags: HW
LayerCount: 2
Fore
SplineSet
135 417 m 1,0,1
 108 267 108 267 153.5 198.5 c 128,-1,2
 199 130 199 130 259 120 c 0,3,4
 315 110 315 110 375 142 c 1,5,-1
 394 122 l 1,6,7
 371 78 371 78 329 42.5 c 128,-1,8
 287 7 287 7 219 -13 c 1,9,10
 140 23 140 23 83 90 c 1,11,12
 26 160 26 160 29 250 c 0,13,14
 33 341 33 341 85 402 c 0,15,16
 112 433 112 433 150 466.5 c 128,-1,17
 188 500 188 500 238 536 c 1,18,19
 282 510 282 510 312.5 482 c 128,-1,20
 343 454 343 454 362 424 c 1,21,-1
 273 344 l 1,22,23
 218 397 218 397 135 417 c 1,0,1
EndSplineSet
EndChar

StartChar: d
Encoding: 100 100 82
Width: 1200
Flags: HW
LayerCount: 2
Fore
SplineSet
153 420 m 1,0,1
 135 359 135 359 136 304.5 c 128,-1,2
 137 250 137 250 156 204 c 1,3,4
 175 159 175 159 202.5 133.5 c 128,-1,5
 230 108 230 108 259 86 c 1,6,7
 291 96 291 96 326 98 c 1,8,-1
 326 275 l 1,9,10
 324 304 324 304 312.5 333 c 128,-1,11
 301 362 301 362 279.5 384.5 c 128,-1,12
 258 407 258 407 226.5 417.5 c 128,-1,13
 195 428 195 428 153 420 c 1,0,1
346 53 m 1,14,15
 265 39 265 39 201 -13 c 1,16,17
 159 2 159 2 124.5 27 c 128,-1,18
 90 52 90 52 65.5 85.5 c 128,-1,19
 41 119 41 119 28 160.5 c 128,-1,20
 15 202 15 202 17 250 c 0,21,22
 20 308 20 308 34.5 347.5 c 128,-1,23
 49 387 49 387 75 417 c 128,-1,24
 101 447 101 447 138 474.5 c 128,-1,25
 175 502 175 502 223 536 c 1,26,27
 251 526 251 526 281 501 c 128,-1,28
 311 476 311 476 326 435 c 1,29,-1
 326 598 l 2,30,31
 326 658 326 658 274 664 c 1,32,-1
 274 682 l 1,33,-1
 462 780 l 1,34,-1
 462 141 l 1,35,36
 463 73 463 73 525 74 c 1,37,-1
 525 49 l 1,38,-1
 431 -9 l 1,39,-1
 346 53 l 1,14,15
EndSplineSet
EndChar

StartChar: e
Encoding: 101 101 83
Width: 1200
Flags: HW
LayerCount: 2
Fore
SplineSet
138 414 m 1,0,1
 89 290 89 290 128 204 c 1,2,-1
 248 324 l 1,3,4
 226 406 226 406 138 414 c 1,0,1
152 170 m 1,5,6
 206 112 206 112 270 106 c 0,7,8
 328 102 328 102 380 129 c 1,9,-1
 393 122 l 1,10,11
 322 3 322 3 218 -13 c 1,12,13
 139 23 139 23 82 90 c 1,14,15
 25 160 25 160 28 250 c 0,16,17
 32 341 32 341 84 402 c 0,18,19
 111 433 111 433 149 466.5 c 128,-1,20
 187 500 187 500 237 536 c 1,21,22
 321 485 321 485 378 396 c 1,23,-1
 152 170 l 1,5,6
EndSplineSet
EndChar

StartChar: f
Encoding: 102 102 84
Width: 1200
Flags: HW
LayerCount: 2
Fore
SplineSet
24 454 m 1,0,1
 87 490 87 490 81 527 c 1,2,3
 76 566 76 566 24 569 c 1,4,-1
 24 588 l 1,5,6
 178 734 178 734 307 776 c 1,7,8
 332 720 332 720 398 708 c 1,9,-1
 299 626 l 1,10,-1
 294 628 l 1,11,12
 275 677 275 677 203 641 c 1,13,14
 222 606 222 606 223 551 c 1,15,-1
 223 527 l 1,16,-1
 347 527 l 1,17,-1
 306 435 l 1,18,-1
 223 435 l 1,19,-1
 223 0 l 1,20,-1
 87 0 l 1,21,-1
 87 435 l 1,22,-1
 24 435 l 1,23,-1
 24 454 l 1,0,1
EndSplineSet
EndChar

StartChar: g
Encoding: 103 103 85
Width: 1200
Flags: HW
LayerCount: 2
Fore
SplineSet
143 385 m 1,0,1
 118 331 118 331 127.5 277.5 c 128,-1,2
 137 224 137 224 170 185.5 c 128,-1,3
 203 147 203 147 253.5 130.5 c 128,-1,4
 304 114 304 114 362 132 c 1,5,6
 362 149 362 149 365 176 c 128,-1,7
 368 203 368 203 366.5 232.5 c 128,-1,8
 365 262 365 262 355 291.5 c 128,-1,9
 345 321 345 321 320.5 343 c 128,-1,10
 296 365 296 365 253.5 377 c 128,-1,11
 211 389 211 389 143 385 c 1,0,1
36 -173 m 1,12,13
 171 0 171 0 295 -123 c 1,14,15
 357 -48 357 -48 358 61 c 1,16,-1
 358 86 l 1,17,18
 335 77 335 77 318.5 67 c 128,-1,19
 302 57 302 57 288 45.5 c 128,-1,20
 274 34 274 34 261 20 c 128,-1,21
 248 6 248 6 231 -12 c 1,22,23
 154 -13 154 -13 110 23.5 c 128,-1,24
 66 60 66 60 49.5 117 c 128,-1,25
 33 174 33 174 42.5 242 c 128,-1,26
 52 310 52 310 84.5 371 c 128,-1,27
 117 432 117 432 169.5 477 c 128,-1,28
 222 522 222 522 291 534 c 1,29,30
 310 506 310 506 330.5 483.5 c 128,-1,31
 351 461 351 461 374.5 443.5 c 128,-1,32
 398 426 398 426 427.5 414 c 128,-1,33
 457 402 457 402 495 396 c 1,34,-1
 495 90 l 1,35,36
 496 -141 496 -141 245 -205 c 1,37,38
 178 -77 178 -77 49 -193 c 1,39,-1
 36 -173 l 1,12,13
EndSplineSet
EndChar

StartChar: h
Encoding: 104 104 86
Width: 1200
Flags: HW
LayerCount: 2
Fore
SplineSet
85 598 m 2,0,1
 85 658 85 658 34 664 c 1,2,-1
 34 682 l 1,3,-1
 221 780 l 1,4,-1
 221 461 l 1,5,6
 270 484 270 484 307 529 c 1,7,8
 483 512 483 512 521 381 c 0,9,10
 560 249 560 249 489 137 c 1,11,12
 418 23 418 23 301 -38 c 1,13,-1
 282 -18 l 1,14,15
 356 34 356 34 393.5 106.5 c 128,-1,16
 431 179 431 179 417 272 c 0,17,18
 404 365 404 365 342 394 c 0,19,20
 284 421 284 421 221 381 c 1,21,-1
 221 0 l 1,22,-1
 85 0 l 1,23,-1
 85 598 l 2,0,1
EndSplineSet
EndChar

StartChar: i
Encoding: 105 105 87
Width: 1200
Flags: HW
LayerCount: 2
Fore
SplineSet
207 657 m 1,0,-1
 56 580 l 1,1,-1
 56 686 l 1,2,-1
 207 762 l 1,3,-1
 207 657 l 1,0,-1
176 -9 m 1,4,-1
 71 70 l 1,5,-1
 71 351 l 2,6,7
 71 411 71 411 19 417 c 1,8,-1
 19 435 l 1,9,-1
 120 534 l 1,10,-1
 207 444 l 1,11,-1
 207 141 l 1,12,13
 208 73 208 73 270 74 c 1,14,-1
 270 49 l 1,15,-1
 176 -9 l 1,4,-1
EndSplineSet
EndChar

StartChar: j
Encoding: 106 106 88
Width: 1200
Flags: HW
LayerCount: 2
Fore
SplineSet
12 -162 m 1,0,1
 85 -129 85 -129 84 23 c 1,2,-1
 84 351 l 2,3,4
 84 411 84 411 33 417 c 1,5,-1
 33 435 l 1,6,-1
 220 534 l 1,7,-1
 220 188 l 1,8,9
 221 -173 221 -173 12 -190 c 1,10,-1
 12 -162 l 1,0,1
220 657 m 1,11,-1
 70 580 l 1,12,-1
 70 686 l 1,13,-1
 220 762 l 1,14,-1
 220 657 l 1,11,-1
EndSplineSet
EndChar

StartChar: k
Encoding: 107 107 89
Width: 1200
Flags: HW
LayerCount: 2
Fore
SplineSet
234 428 m 1,0,1
 218 411 218 411 202 395.5 c 128,-1,2
 186 380 186 380 170 366 c 1,3,-1
 170 303 l 1,4,5
 215 315 215 315 302 298 c 1,6,7
 318 394 318 394 234 428 c 1,0,1
34 598 m 2,8,9
 34 658 34 658 -17 664 c 1,10,-1
 -17 682 l 1,11,-1
 170 780 l 1,12,-1
 170 418 l 1,13,14
 223 471 223 471 271 538 c 1,15,16
 317 543 317 543 352.5 527 c 128,-1,17
 388 511 388 511 412.5 481.5 c 128,-1,18
 437 452 437 452 447.5 413.5 c 128,-1,19
 458 375 458 375 450 316 c 1,20,21
 427 306 427 306 398.5 298.5 c 128,-1,22
 370 291 370 291 335 285 c 1,23,24
 366 271 366 271 390 247 c 0,25,26
 467 174 467 174 475 0 c 1,27,-1
 335 0 l 1,28,29
 335 143 335 143 283.5 194.5 c 128,-1,30
 232 246 232 246 170 245 c 1,31,-1
 170 0 l 1,32,-1
 34 0 l 1,33,-1
 34 598 l 2,8,9
EndSplineSet
EndChar

StartChar: l
Encoding: 108 108 90
Width: 1200
Flags: HW
LayerCount: 2
Fore
SplineSet
176 -9 m 1,0,-1
 71 70 l 1,1,-1
 71 598 l 2,2,3
 71 658 71 658 19 664 c 1,4,-1
 19 682 l 1,5,-1
 207 780 l 1,6,-1
 207 141 l 1,7,8
 208 73 208 73 270 74 c 1,9,-1
 270 49 l 1,10,-1
 176 -9 l 1,0,-1
EndSplineSet
EndChar

StartChar: m
Encoding: 109 109 91
Width: 1200
Flags: HW
LayerCount: 2
Fore
SplineSet
73 347 m 2,0,1
 73 407 73 407 22 413 c 1,2,-1
 22 431 l 1,3,-1
 136 529 l 1,4,5
 197 512 197 512 209 461 c 1,6,7
 313 483 313 483 383 529 c 1,8,9
 463 509 463 509 499 454 c 1,10,11
 605 476 605 476 695 529 c 1,12,13
 821 498 821 498 841 375 c 0,14,15
 860 250 860 250 810 0 c 1,16,-1
 634 0 l 1,17,18
 774 343 774 343 682 381 c 128,-1,19
 590 419 590 419 527 384 c 1,20,21
 547 239 547 239 498 0 c 1,22,-1
 322 0 l 1,23,24
 466 341 466 341 369.5 381 c 128,-1,25
 273 421 273 421 209 381 c 1,26,-1
 209 0 l 1,27,-1
 73 0 l 1,28,-1
 73 347 l 2,0,1
EndSplineSet
EndChar

StartChar: n
Encoding: 110 110 92
Width: 1200
Flags: HW
LayerCount: 2
Fore
SplineSet
56 347 m 2,0,1
 56 407 56 407 5 413 c 1,2,-1
 5 431 l 1,3,-1
 120 529 l 1,4,5
 181 512 181 512 193 461 c 1,6,7
 297 483 297 483 367 529 c 1,8,9
 493 498 493 498 512 375 c 0,10,11
 531 250 531 250 481 0 c 1,12,-1
 305 0 l 1,13,14
 450 341 450 341 353 381 c 0,15,16
 257 421 257 421 193 381 c 1,17,-1
 193 0 l 1,18,-1
 56 0 l 1,19,-1
 56 347 l 2,0,1
EndSplineSet
EndChar

StartChar: o
Encoding: 111 111 93
Width: 1200
Flags: HW
LayerCount: 2
Fore
SplineSet
104 387 m 1,0,1
 87 343 87 343 92.5 301.5 c 128,-1,2
 98 260 98 260 118.5 224 c 128,-1,3
 139 188 139 188 171.5 160 c 128,-1,4
 204 132 204 132 239 114.5 c 128,-1,5
 274 97 274 97 309 92.5 c 128,-1,6
 344 88 344 88 371 99 c 1,7,8
 387 135 387 135 384.5 174 c 128,-1,9
 382 213 382 213 365 249 c 128,-1,10
 348 285 348 285 320 315.5 c 128,-1,11
 292 346 292 346 257 366 c 128,-1,12
 222 386 222 386 182.5 392.5 c 128,-1,13
 143 399 143 399 104 387 c 1,0,1
248 536 m 1,14,15
 368 467 368 467 415 390 c 1,16,17
 462 315 462 315 462 225 c 0,18,19
 462 137 462 137 391 72 c 1,20,21
 323 4 323 4 225 -13 c 1,22,23
 129 23 129 23 63 90 c 0,24,25
 -5 160 -5 160 0 250 c 0,26,27
 4 343 4 343 67 403 c 0,28,29
 128 463 128 463 248 536 c 1,14,15
EndSplineSet
EndChar

StartChar: p
Encoding: 112 112 94
Width: 1200
Flags: HW
LayerCount: 2
Fore
SplineSet
372 98 m 1,0,1
 390 159 390 159 388.5 213.5 c 128,-1,2
 387 268 387 268 368 314 c 0,3,4
 350 359 350 359 322 385 c 128,-1,5
 294 411 294 411 265 432 c 1,6,7
 233 422 233 422 199 420 c 1,8,-1
 199 243 l 1,9,10
 200 214 200 214 211.5 185 c 128,-1,11
 223 156 223 156 244.5 134 c 128,-1,12
 266 112 266 112 298 101 c 128,-1,13
 330 90 330 90 372 98 c 1,0,1
199 469 m 1,14,15
 267 485 267 485 324 531 c 1,16,17
 365 516 365 516 399.5 491 c 128,-1,18
 434 466 434 466 458.5 432.5 c 128,-1,19
 483 399 483 399 496 357.5 c 128,-1,20
 509 316 509 316 507 268 c 0,21,22
 504 210 504 210 489.5 170.5 c 128,-1,23
 475 131 475 131 449 101 c 128,-1,24
 423 71 423 71 386 43.5 c 128,-1,25
 349 16 349 16 301 -17 c 1,26,27
 273 -7 273 -7 243 17.5 c 128,-1,28
 213 42 213 42 199 83 c 1,29,-1
 199 -195 l 1,30,-1
 62 -195 l 1,31,-1
 62 343 l 2,32,33
 62 403 62 403 11 409 c 1,34,-1
 11 427 l 1,35,-1
 199 525 l 1,36,-1
 199 469 l 1,14,15
EndSplineSet
EndChar

StartChar: q
Encoding: 113 113 95
Width: 1200
Flags: HW
LayerCount: 2
Fore
SplineSet
125 385 m 1,0,1
 100 331 100 331 109.5 277.5 c 128,-1,2
 119 224 119 224 151.5 185.5 c 128,-1,3
 184 147 184 147 235 130.5 c 128,-1,4
 286 114 286 114 344 132 c 1,5,6
 344 149 344 149 346.5 176 c 128,-1,7
 349 203 349 203 347.5 232.5 c 128,-1,8
 346 262 346 262 336.5 291.5 c 128,-1,9
 327 321 327 321 302.5 343 c 128,-1,10
 278 365 278 365 235.5 377 c 128,-1,11
 193 389 193 389 125 385 c 1,0,1
340 86 m 1,12,13
 317 77 317 77 300.5 67 c 128,-1,14
 284 57 284 57 270 45.5 c 128,-1,15
 256 34 256 34 242.5 20 c 128,-1,16
 229 6 229 6 213 -12 c 1,17,18
 136 -13 136 -13 91.5 23.5 c 128,-1,19
 47 60 47 60 30.5 117 c 128,-1,20
 14 174 14 174 24 242 c 128,-1,21
 34 310 34 310 66 371 c 128,-1,22
 98 432 98 432 151 477 c 128,-1,23
 204 522 204 522 272 534 c 1,24,25
 291 506 291 506 312 483.5 c 128,-1,26
 333 461 333 461 356.5 443.5 c 128,-1,27
 380 426 380 426 409 414 c 128,-1,28
 438 402 438 402 476 396 c 1,29,-1
 476 -195 l 1,30,-1
 340 -195 l 1,31,-1
 340 86 l 1,12,13
EndSplineSet
EndChar

StartChar: r
Encoding: 114 114 96
Width: 1200
Flags: HW
LayerCount: 2
Fore
SplineSet
52 347 m 2,0,1
 52 407 52 407 1 413 c 1,2,-1
 1 431 l 1,3,-1
 116 529 l 1,4,5
 177 512 177 512 188 461 c 1,6,7
 218 512 218 512 288 529 c 1,8,9
 313 473 313 473 379 461 c 1,10,-1
 280 379 l 1,11,-1
 274 381 l 1,12,13
 252 437 252 437 188 381 c 1,14,-1
 188 0 l 1,15,-1
 52 0 l 1,16,-1
 52 347 l 2,0,1
EndSplineSet
EndChar

StartChar: s
Encoding: 115 115 97
Width: 1200
Flags: HW
LayerCount: 2
Fore
SplineSet
167 427 m 1,0,1
 129 355 129 355 167 312 c 1,2,3
 206 270 206 270 290 267 c 1,4,5
 384 265 384 265 462 297 c 1,6,7
 496 225 496 225 501 146 c 1,8,9
 501 89 501 89 415 45 c 1,10,11
 336 1 336 1 243 -11 c 1,12,13
 158 12 158 12 77 56 c 0,14,15
 63 64 63 64 50.5 73 c 128,-1,16
 38 82 38 82 29 91 c 1,17,18
 98 111 98 111 154 155 c 1,19,20
 204 81 204 81 265 63 c 0,21,22
 322 47 322 47 390 59 c 1,23,24
 402 125 402 125 355 166 c 1,25,26
 310 207 310 207 226 208 c 0,27,28
 138 210 138 210 89 191 c 1,29,30
 31 271 31 271 34 331.5 c 128,-1,31
 37 392 37 392 114 432 c 0,32,33
 152 452 152 452 197.5 474 c 128,-1,34
 243 496 243 496 298 519 c 1,35,36
 408 475 408 475 483 415 c 1,37,38
 428 401 428 401 367 348 c 1,39,40
 353 393 353 393 289 415 c 1,41,42
 226 437 226 437 167 427 c 1,0,1
EndSplineSet
EndChar

StartChar: t
Encoding: 116 116 98
Width: 1200
Flags: HW
LayerCount: 2
Fore
SplineSet
44 70 m 1,0,-1
 44 369 l 2,1,2
 44 429 44 429 -7 434 c 1,3,-1
 -7 453 l 1,4,-1
 180 636 l 1,5,-1
 180 512 l 1,6,-1
 284 512 l 1,7,-1
 284 430 l 1,8,-1
 180 430 l 1,9,-1
 180 141 l 1,10,11
 181 73 181 73 244 74 c 1,12,-1
 244 49 l 1,13,-1
 150 -9 l 1,14,-1
 44 70 l 1,0,-1
EndSplineSet
EndChar

StartChar: u
Encoding: 117 117 99
Width: 1200
Flags: HW
LayerCount: 2
Fore
SplineSet
502 176 m 2,0,1
 502 116 502 116 553 111 c 1,2,-1
 553 92 l 1,3,-1
 438 -6 l 1,4,5
 377 11 377 11 369 81 c 1,6,7
 277 55 277 55 191 -6 c 1,8,9
 65 25 65 25 41 132 c 0,10,11
 17 240 17 240 47 346 c 0,12,13
 78 454 78 454 41 523 c 1,14,-1
 185 523 l 1,15,16
 230 469 230 469 181 314 c 1,17,18
 125 156 125 156 213 129 c 0,19,20
 301 102 301 102 366 152 c 1,21,-1
 366 523 l 1,22,-1
 502 523 l 1,23,-1
 502 176 l 2,0,1
EndSplineSet
EndChar

StartChar: v
Encoding: 118 118 100
Width: 1200
Flags: HW
LayerCount: 2
Fore
SplineSet
122 528 m 1,0,1
 187 472 187 472 189 321 c 0,2,3
 193 169 193 169 298 92 c 1,4,5
 370 160 370 160 381 246 c 0,6,7
 391 332 391 332 344 393 c 1,8,9
 298 455 298 455 212 428 c 1,10,-1
 204 451 l 1,11,12
 234 468 234 468 256 489 c 128,-1,13
 278 510 278 510 291 536 c 1,14,15
 372 542 372 542 426 493 c 0,16,17
 480 445 480 445 474 343.5 c 128,-1,18
 468 242 468 242 416 161 c 0,19,20
 364 81 364 81 234 -17 c 1,21,-1
 225 -17 l 1,22,23
 59 147 59 147 59 299 c 0,24,25
 59 451 59 451 -24 489 c 1,26,-1
 -24 528 l 1,27,-1
 122 528 l 1,0,1
EndSplineSet
EndChar

StartChar: w
Encoding: 119 119 101
Width: 1200
Flags: HW
LayerCount: 2
Fore
SplineSet
559 -17 m 1,0,1
 477 64 477 64 442 124 c 1,2,3
 415 91 415 91 376.5 55.5 c 128,-1,4
 338 20 338 20 288 -17 c 1,5,-1
 279 -17 l 1,6,7
 113 147 113 147 113 299 c 0,8,9
 113 451 113 451 30 489 c 1,10,-1
 30 528 l 1,11,-1
 175 528 l 1,12,13
 240 472 240 472 243 321 c 0,14,15
 247 169 247 169 351 92 c 1,16,17
 423 160 423 160 434 246 c 0,18,19
 444 332 444 332 397 393 c 1,20,21
 351 455 351 455 265 428 c 1,22,-1
 257 451 l 1,23,24
 287 468 287 468 309 489 c 128,-1,25
 331 510 331 510 344 536 c 1,26,27
 425 542 425 542 488 475 c 1,28,29
 551 405 551 405 520 290 c 1,30,31
 550 152 550 152 632 92 c 1,32,33
 704 160 704 160 715 246 c 0,34,35
 725 332 725 332 678 393 c 1,36,37
 632 455 632 455 546 428 c 1,38,-1
 538 451 l 1,39,40
 568 468 568 468 589.5 489 c 128,-1,41
 611 510 611 510 625 536 c 1,42,43
 706 542 706 542 760 493 c 0,44,45
 814 445 814 445 808 343.5 c 128,-1,46
 802 242 802 242 750 161 c 0,47,48
 698 81 698 81 568 -17 c 1,49,-1
 559 -17 l 1,0,1
EndSplineSet
EndChar

StartChar: x
Encoding: 120 120 102
Width: 1200
Flags: HW
LayerCount: 2
Fore
SplineSet
22 14 m 1,0,1
 143 61 143 61 212 243 c 1,2,-1
 145 351 l 1,3,4
 113 412 113 412 30 417 c 1,5,-1
 20 435 l 1,6,-1
 101 534 l 1,7,-1
 245 449 l 1,8,-1
 280 375 l 1,9,10
 378 504 378 504 458 534 c 1,11,12
 466 511 466 511 477.5 486.5 c 128,-1,13
 489 462 489 462 506 435 c 1,14,15
 387 375 387 375 325 275 c 1,16,-1
 420 116 l 1,17,18
 450 76 450 76 517 74 c 1,19,-1
 529 49 l 1,20,-1
 434 -9 l 1,21,-1
 289 70 l 1,22,-1
 246 164 l 1,23,24
 176 20 176 20 33 -7 c 1,25,-1
 22 14 l 1,0,1
EndSplineSet
EndChar

StartChar: y
Encoding: 121 121 103
Width: 1200
Flags: HW
LayerCount: 2
Fore
SplineSet
205 9 m 1,0,1
 63 157 63 157 62 299 c 0,2,3
 62 451 62 451 -20 489 c 1,4,-1
 -20 528 l 1,5,-1
 125 528 l 1,6,7
 190 472 190 472 193 321 c 0,8,9
 197 169 197 169 301 92 c 1,10,11
 373 160 373 160 384 246 c 0,12,13
 394 332 394 332 347 393 c 1,14,15
 301 455 301 455 215 428 c 1,16,-1
 207 451 l 1,17,18
 237 468 237 468 259 489 c 128,-1,19
 281 510 281 510 294 536 c 1,20,21
 375 542 375 542 429 493 c 0,22,23
 483 445 483 445 477 343.5 c 128,-1,24
 471 242 471 242 419 161 c 0,25,26
 393 123 393 123 361 88 c 128,-1,27
 329 53 329 53 290 22 c 0,28,29
 213 -39 213 -39 181 -90 c 0,30,31
 148 -141 148 -141 151 -195 c 1,32,-1
 26 -195 l 1,33,34
 48 -121 48 -121 90.5 -68.5 c 128,-1,35
 133 -16 133 -16 205 9 c 1,0,1
EndSplineSet
EndChar

StartChar: z
Encoding: 122 122 104
Width: 1200
Flags: HW
LayerCount: 2
Fore
SplineSet
473 492 m 1,0,-1
 204 125 l 1,1,-1
 319 125 l 2,2,3
 412 125 412 125 475 181 c 1,4,-1
 492 161 l 1,5,-1
 424 -1 l 1,6,-1
 31 -2 l 1,7,-1
 31 44 l 1,8,-1
 323 410 l 1,9,-1
 201 410 l 2,10,11
 138 410 138 410 54 364 c 1,12,-1
 41 378 l 1,13,-1
 73 527 l 1,14,-1
 473 527 l 1,15,-1
 473 492 l 1,0,-1
EndSplineSet
EndChar

StartChar: braceleft
Encoding: 123 123 105
Width: 1200
Flags: HW
LayerCount: 2
Fore
SplineSet
311 -77 m 1,0,1
 122 -101 122 -101 134 120.5 c 128,-1,2
 146 342 146 342 27 356 c 1,3,-1
 27 426 l 1,4,5
 147 449 147 449 134.5 665 c 128,-1,6
 122 881 122 881 311 856 c 1,7,-1
 309 824 l 1,8,9
 189 810 189 810 203.5 626.5 c 128,-1,10
 218 443 218 443 146 393 c 1,11,12
 218 349 218 349 204 164 c 0,13,14
 191 -18 191 -18 309 -45 c 1,15,-1
 311 -66 l 1,16,-1
 311 -77 l 1,0,1
EndSplineSet
EndChar

StartChar: bar
Encoding: 124 124 106
Width: 1200
Flags: HW
LayerCount: 2
Fore
SplineSet
33 819 m 1,0,-1
 102 819 l 1,1,-1
 102 -194 l 1,2,-1
 33 -194 l 1,3,-1
 33 819 l 1,0,-1
EndSplineSet
EndChar

StartChar: braceright
Encoding: 125 125 107
Width: 1200
Flags: HW
LayerCount: 2
Fore
SplineSet
27 857 m 1,0,1
 216 881 216 881 204 658 c 0,2,3
 192 438 192 438 311 424 c 1,4,-1
 311 354 l 1,5,6
 191 331 191 331 203.5 115.5 c 128,-1,7
 216 -100 216 -100 27 -76 c 1,8,-1
 29 -44 l 1,9,10
 147 -31 147 -31 133 153 c 0,11,12
 120 337 120 337 191 387 c 1,13,14
 118 433 118 433 133 616 c 0,15,16
 146 798 146 798 29 825 c 1,17,-1
 27 846 l 1,18,-1
 27 857 l 1,0,1
EndSplineSet
EndChar

StartChar: quotesinglbase
Encoding: 8218 8218 109
Width: 172
Flags: HW
LayerCount: 2
Fore
SplineSet
43 -98 m 1,0,-1
 29 -85 l 1,1,-1
 69 0 l 1,2,-1
 24 70 l 1,3,-1
 92 170 l 1,4,-1
 152 81 l 1,5,-1
 43 -98 l 1,0,-1
EndSplineSet
EndChar

StartChar: florin
Encoding: 402 402 110
Width: 410
Flags: HW
LayerCount: 2
Fore
SplineSet
48 459 m 1,0,-1
 77 459 l 2,1,2
 129 459 129 459 138 512 c 1,3,4
 149 566 149 566 97 569 c 1,5,-1
 102 588 l 1,6,7
 295 734 295 734 436 776 c 1,8,9
 446 720 446 720 509 708 c 1,10,-1
 419 614 l 1,11,12
 376 675 376 675 295 657 c 1,13,14
 306 606 306 606 292 551 c 2,15,-1
 267 459 l 1,16,-1
 393 459 l 1,17,-1
 393 428 l 1,18,-1
 259 428 l 1,19,-1
 195 184 l 1,20,21
 95 -174 95 -174 -117 -190 c 1,22,-1
 -110 -162 l 1,23,24
 -29 -130 -29 -130 13 23 c 2,25,-1
 123 428 l 1,26,-1
 48 428 l 1,27,-1
 48 459 l 1,0,-1
EndSplineSet
EndChar

StartChar: quotedblbase
Encoding: 8222 8222 111
Width: 324
Flags: HW
LayerCount: 2
Fore
SplineSet
191 -98 m 1,0,-1
 176 -85 l 1,1,-1
 219 0 l 1,2,-1
 172 70 l 1,3,-1
 242 170 l 1,4,-1
 300 81 l 1,5,-1
 191 -98 l 1,0,-1
43 -98 m 1,6,-1
 29 -85 l 1,7,-1
 69 0 l 1,8,-1
 24 70 l 1,9,-1
 92 170 l 1,10,-1
 152 81 l 1,11,-1
 43 -98 l 1,6,-1
EndSplineSet
EndChar

StartChar: dagger
Encoding: 8224 8224 113
Width: 417
Flags: HW
LayerCount: 2
Fore
SplineSet
62 640 m 1,0,1
 101 624 101 624 165 624 c 1,2,-1
 158 742 l 1,3,-1
 268 796 l 1,4,-1
 258 624 l 1,5,6
 349 624 349 624 387 652 c 1,7,-1
 409 639 l 1,8,-1
 358 557 l 1,9,10
 325 572 325 572 255 572 c 1,11,-1
 214 -150 l 1,12,-1
 167 572 l 1,13,14
 62 572 62 572 33 536 c 1,15,-1
 13 545 l 1,16,-1
 62 640 l 1,0,1
EndSplineSet
EndChar

StartChar: daggerdbl
Encoding: 8225 8225 114
Width: 417
Flags: HW
LayerCount: 2
Fore
SplineSet
359 5 m 1,0,1
 320 21 320 21 257 22 c 1,2,-1
 264 -97 l 1,3,-1
 154 -151 l 1,4,-1
 164 22 l 1,5,6
 73 22 73 22 35 -7 c 1,7,-1
 13 6 l 1,8,-1
 63 88 l 1,9,10
 95 73 95 73 167 73 c 1,11,-1
 196 319 l 1,12,-1
 167 572 l 1,13,14
 62 572 62 572 33 536 c 1,15,-1
 13 545 l 1,16,-1
 62 640 l 1,17,18
 101 624 101 624 165 624 c 1,19,-1
 158 742 l 1,20,-1
 268 796 l 1,21,-1
 258 624 l 1,22,23
 349 624 349 624 387 652 c 1,24,-1
 409 639 l 1,25,-1
 358 557 l 1,26,27
 325 572 325 572 255 572 c 1,28,-1
 225 317 l 1,29,-1
 255 73 l 1,30,31
 359 73 359 73 389 110 c 1,32,-1
 409 100 l 1,33,-1
 359 5 l 1,0,1
EndSplineSet
EndChar

StartChar: circumflex
Encoding: 710 710 115
Width: 284
Flags: HW
LayerCount: 2
Fore
SplineSet
116 995 m 1,0,-1
 169 995 l 1,1,-1
 282 851 l 1,2,-1
 219 851 l 1,3,-1
 143 964 l 1,4,-1
 71 851 l 1,5,-1
 0 851 l 1,6,-1
 116 995 l 1,0,-1
EndSplineSet
EndChar

StartChar: perthousand
Encoding: 8240 8240 116
Width: 1076
Flags: HW
LayerCount: 2
Fore
SplineSet
156 773 m 1,0,1
 243 723 243 723 276.5 667.5 c 128,-1,2
 310 612 310 612 310 548 c 0,3,4
 310 485 310 485 259 435 c 0,5,6
 207 386 207 386 139 376 c 1,7,8
 69 401 69 401 23 451 c 0,9,10
 -26 502 -26 502 -23 566 c 1,11,12
 -20 635 -20 635 25 676 c 1,13,14
 68 719 68 719 156 773 c 1,0,1
52 666 m 1,15,16
 39 633 39 633 42.5 602.5 c 128,-1,17
 46 572 46 572 61.5 546 c 128,-1,18
 77 520 77 520 100.5 500 c 128,-1,19
 124 480 124 480 149.5 468 c 128,-1,20
 175 456 175 456 200 452.5 c 128,-1,21
 225 449 225 449 245 457 c 1,22,23
 261 497 261 497 249.5 539.5 c 128,-1,24
 238 582 238 582 208 614 c 128,-1,25
 178 646 178 646 136.5 662 c 128,-1,26
 95 678 95 678 52 666 c 1,15,16
531 392 m 1,27,28
 618 342 618 342 652 286.5 c 128,-1,29
 686 231 686 231 686 167 c 0,30,31
 686 104 686 104 635 54 c 0,32,33
 583 5 583 5 515 -5 c 1,34,35
 445 20 445 20 398 70 c 1,36,37
 349 120 349 120 352 185 c 1,38,39
 357 253 357 253 400 295 c 0,40,41
 443 338 443 338 531 392 c 1,27,28
428 285 m 1,42,43
 415 252 415 252 418.5 221.5 c 128,-1,44
 422 191 422 191 437.5 165.5 c 128,-1,45
 453 140 453 140 476.5 119.5 c 128,-1,46
 500 99 500 99 525.5 87 c 128,-1,47
 551 75 551 75 576.5 71.5 c 128,-1,48
 602 68 602 68 621 76 c 1,49,50
 637 116 637 116 625 158.5 c 128,-1,51
 613 201 613 201 583.5 233 c 128,-1,52
 554 265 554 265 512.5 281 c 128,-1,53
 471 297 471 297 428 285 c 1,42,43
636 797 m 1,54,-1
 138 0 l 1,55,-1
 65 0 l 1,56,-1
 569 797 l 1,57,-1
 636 797 l 1,54,-1
890 392 m 1,58,59
 977 342 977 342 1010.5 286.5 c 128,-1,60
 1044 231 1044 231 1044 167 c 0,61,62
 1044 104 1044 104 993 54 c 0,63,64
 941 5 941 5 873 -5 c 1,65,66
 803 20 803 20 757 70 c 1,67,68
 708 120 708 120 711 185 c 1,69,70
 716 253 716 253 759 295 c 0,71,72
 802 338 802 338 890 392 c 1,58,59
786 285 m 1,73,74
 773 252 773 252 776.5 221.5 c 128,-1,75
 780 191 780 191 795.5 165.5 c 128,-1,76
 811 140 811 140 834.5 119.5 c 128,-1,77
 858 99 858 99 883.5 87 c 128,-1,78
 909 75 909 75 935 71.5 c 128,-1,79
 961 68 961 68 979 76 c 1,80,81
 995 116 995 116 983.5 158.5 c 128,-1,82
 972 201 972 201 942 233 c 128,-1,83
 912 265 912 265 870.5 281 c 128,-1,84
 829 297 829 297 786 285 c 1,73,74
EndSplineSet
EndChar

StartChar: guilsinglleft
Encoding: 8249 8249 117
Width: 287
Flags: HW
LayerCount: 2
Fore
SplineSet
262 553 m 1,0,-1
 262 509 l 1,1,-1
 76 323 l 1,2,-1
 262 136 l 1,3,-1
 262 49 l 1,4,-1
 10 302 l 1,5,-1
 262 553 l 1,0,-1
EndSplineSet
EndChar

StartChar: OE
Encoding: 338 338 118
Width: 1013
Flags: HW
LayerCount: 2
Fore
SplineSet
145 597 m 1,0,1
 125 558 125 558 122 521 c 128,-1,2
 119 484 119 484 119 445 c 1,3,4
 126 371 126 371 153.5 308 c 128,-1,5
 181 245 181 245 220 198.5 c 128,-1,6
 259 152 259 152 305.5 125.5 c 128,-1,7
 352 99 352 99 397 99 c 0,8,9
 439 99 439 99 468 125 c 1,10,11
 496 190 496 190 496 287 c 0,12,13
 496 336 496 336 486 384 c 0,14,15
 479 422 479 422 461.5 462 c 128,-1,16
 444 502 444 502 419 537 c 128,-1,17
 394 572 394 572 363 599 c 128,-1,18
 332 626 332 626 296.5 637 c 128,-1,19
 261 648 261 648 222.5 640 c 128,-1,20
 184 632 184 632 145 597 c 1,0,1
999 221 m 1,21,22
 975 178 975 178 955.5 147 c 128,-1,23
 936 116 936 116 922 96 c 0,24,25
 887 50 887 50 833.5 19 c 128,-1,26
 780 -12 780 -12 716 -14 c 1,27,-1
 712 -14 l 2,28,29
 686 -14 686 -14 653 -3.5 c 128,-1,30
 620 7 620 7 589.5 28.5 c 128,-1,31
 559 50 559 50 537 82 c 128,-1,32
 515 114 515 114 512 156 c 1,33,34
 473 88 473 88 414.5 45.5 c 128,-1,35
 356 3 356 3 292 -11 c 1,36,37
 240 14 240 14 192.5 51.5 c 128,-1,38
 145 89 145 89 110 138.5 c 128,-1,39
 75 188 75 188 54 248.5 c 128,-1,40
 33 309 33 309 33 379 c 1,41,42
 35 448 35 448 53.5 502.5 c 128,-1,43
 72 557 72 557 107 604.5 c 128,-1,44
 142 652 142 652 194.5 697 c 128,-1,45
 247 742 247 742 317 793 c 1,46,47
 438 710 438 710 496 611 c 1,48,49
 545 695 545 695 606.5 737 c 128,-1,50
 668 779 668 779 757 781 c 1,51,52
 825 781 825 781 873 753 c 128,-1,53
 921 725 921 725 965 670 c 1,54,-1
 861 556 l 1,55,-1
 842 587 l 1,56,57
 843 589 843 589 843 601 c 0,58,59
 843 617 843 617 835.5 633.5 c 128,-1,60
 828 650 828 650 815 663.5 c 128,-1,61
 802 677 802 677 782 685.5 c 128,-1,62
 762 694 762 694 737 694 c 0,63,64
 703 694 703 694 673.5 679.5 c 128,-1,65
 644 665 644 665 622 632.5 c 128,-1,66
 600 600 600 600 585.5 550 c 128,-1,67
 571 500 571 500 568 428 c 1,68,-1
 921 479 l 1,69,-1
 845 292 l 1,70,-1
 830 292 l 1,71,72
 825 343 825 343 779 343 c 1,73,-1
 571 364 l 1,74,75
 582 288 582 288 603.5 236.5 c 128,-1,76
 625 185 625 185 652.5 154 c 128,-1,77
 680 123 680 123 711 109.5 c 128,-1,78
 742 96 742 96 775 96 c 1,79,80
 816 100 816 100 848 117.5 c 128,-1,81
 880 135 880 135 903 158 c 128,-1,82
 926 181 926 181 942 205.5 c 128,-1,83
 958 230 958 230 970 249 c 1,84,-1
 999 221 l 1,21,22
EndSplineSet
EndChar

StartChar: quoteleft
Encoding: 8216 8216 119
Width: 168
Flags: HW
LayerCount: 2
Fore
SplineSet
132 810 m 1,0,-1
 147 797 l 1,1,-1
 104 712 l 1,2,-1
 152 642 l 1,3,-1
 82 542 l 1,4,-1
 24 631 l 1,5,-1
 132 810 l 1,0,-1
EndSplineSet
EndChar

StartChar: quoteright
Encoding: 8217 8217 120
Width: 163
Flags: HW
LayerCount: 2
Fore
SplineSet
43 531 m 1,0,-1
 29 545 l 1,1,-1
 69 630 l 1,2,-1
 24 699 l 1,3,-1
 92 800 l 1,4,-1
 152 711 l 1,5,-1
 43 531 l 1,0,-1
EndSplineSet
EndChar

StartChar: quotedblleft
Encoding: 8220 8220 121
Width: 324
Flags: HW
LayerCount: 2
Fore
SplineSet
132 810 m 1,0,-1
 147 797 l 1,1,-1
 104 712 l 1,2,-1
 152 642 l 1,3,-1
 82 542 l 1,4,-1
 24 631 l 1,5,-1
 132 810 l 1,0,-1
281 810 m 1,6,-1
 295 797 l 1,7,-1
 255 712 l 1,8,-1
 300 642 l 1,9,-1
 231 542 l 1,10,-1
 172 631 l 1,11,-1
 281 810 l 1,6,-1
EndSplineSet
EndChar

StartChar: quotedblright
Encoding: 8221 8221 122
Width: 324
Flags: HW
LayerCount: 2
Fore
SplineSet
191 531 m 1,0,-1
 176 545 l 1,1,-1
 219 630 l 1,2,-1
 172 699 l 1,3,-1
 242 800 l 1,4,-1
 300 711 l 1,5,-1
 191 531 l 1,0,-1
43 531 m 1,6,-1
 29 545 l 1,7,-1
 69 630 l 1,8,-1
 24 699 l 1,9,-1
 92 800 l 1,10,-1
 152 711 l 1,11,-1
 43 531 l 1,6,-1
EndSplineSet
EndChar

StartChar: bullet
Encoding: 8226 8226 123
Width: 363
Flags: HW
LayerCount: 2
Fore
SplineSet
17 367 m 256,0,1
 17 401 17 401 30 430.5 c 128,-1,2
 43 460 43 460 64.5 482 c 128,-1,3
 86 504 86 504 115.5 516.5 c 128,-1,4
 145 529 145 529 179 529 c 256,5,6
 213 529 213 529 242.5 516.5 c 128,-1,7
 272 504 272 504 294 482 c 128,-1,8
 316 460 316 460 329 430 c 128,-1,9
 342 400 342 400 342 367 c 256,10,11
 342 333 342 333 329 303 c 128,-1,12
 316 273 316 273 294 251.5 c 128,-1,13
 272 230 272 230 242.5 217.5 c 128,-1,14
 213 205 213 205 179 205 c 256,15,16
 145 205 145 205 115.5 217.5 c 128,-1,17
 86 230 86 230 64.5 251.5 c 128,-1,18
 43 273 43 273 30 303 c 128,-1,19
 17 333 17 333 17 367 c 256,0,1
EndSplineSet
EndChar

StartChar: endash
Encoding: 8211 8211 124
Width: 465
Flags: HW
LayerCount: 2
Fore
SplineSet
58 366 m 1,0,1
 97 350 97 350 159 349 c 2,2,-1
 345 349 l 2,3,4
 381 349 381 349 419 378 c 1,5,-1
 440 365 l 1,6,-1
 390 231 l 1,7,8
 357 246 357 246 333 247 c 2,9,-1
 102 247 l 2,10,11
 57 247 57 247 29 210 c 1,12,-1
 9 219 l 1,13,-1
 58 366 l 1,0,1
EndSplineSet
EndChar

StartChar: emdash
Encoding: 8212 8212 125
Width: 672
Flags: HW
LayerCount: 2
Fore
SplineSet
58 366 m 1,0,1
 97 350 97 350 159 349 c 2,2,-1
 567 349 l 2,3,4
 603 349 603 349 641 378 c 1,5,-1
 663 365 l 1,6,-1
 612 231 l 1,7,8
 579 246 579 246 555 247 c 2,9,-1
 102 247 l 2,10,11
 57 247 57 247 29 210 c 1,12,-1
 9 219 l 1,13,-1
 58 366 l 1,0,1
EndSplineSet
EndChar

StartChar: tilde
Encoding: 732 732 126
Width: 275
Flags: HW
LayerCount: 2
Fore
SplineSet
-22 873 m 1,0,1
 15 995 15 995 80 999 c 1,2,3
 122 997 122 997 168 942 c 1,4,5
 235 845 235 845 254 1005 c 1,6,-1
 308 979 l 1,7,8
 279 845 279 845 196 846 c 0,9,10
 170 847 170 847 113 916 c 128,-1,11
 56 985 56 985 19 850 c 1,12,-1
 -22 873 l 1,0,1
EndSplineSet
EndChar

StartChar: trademark
Encoding: 8482 8482 127
Width: 983
Flags: HW
LayerCount: 2
Fore
SplineSet
45 771 m 1,0,-1
 374 771 l 1,1,-1
 374 667 l 1,2,-1
 317 667 l 1,3,-1
 317 728 l 1,4,5
 260 722 260 722 260 702 c 2,6,-1
 260 422 l 2,7,8
 260 390 260 390 307 390 c 2,9,-1
 322 390 l 1,10,-1
 322 347 l 1,11,-1
 104 347 l 1,12,-1
 104 388 l 1,13,14
 161 393 161 393 162 417 c 2,15,-1
 162 695 l 2,16,17
 162 722 162 722 105 728 c 1,18,-1
 105 667 l 1,19,-1
 45 667 l 1,20,-1
 45 771 l 1,0,-1
506 419 m 2,21,22
 506 317 506 317 427 238 c 1,23,-1
 399 257 l 1,24,25
 441 320 441 320 441 412 c 2,26,-1
 441 680 l 2,27,28
 441 718 441 718 416 725 c 1,29,-1
 416 771 l 1,30,-1
 549 771 l 1,31,-1
 642 570 l 1,32,-1
 707 697 l 1,33,-1
 706 697 l 1,34,35
 713 711 713 711 713 717 c 256,36,37
 713 722 713 722 708 723.5 c 128,-1,38
 703 725 703 725 697 725 c 2,39,-1
 685 725 l 1,40,-1
 685 771 l 1,41,-1
 866 771 l 1,42,-1
 866 728 l 1,43,44
 835 728 835 728 836 699 c 2,45,-1
 836 436 l 2,46,47
 836 383 836 383 872 383 c 1,48,-1
 872 343 l 1,49,-1
 700 343 l 1,50,-1
 700 386 l 1,51,52
 734 386 734 386 734 432 c 2,53,-1
 734 617 l 1,54,-1
 622 378 l 1,55,-1
 506 612 l 1,56,-1
 506 419 l 2,21,22
EndSplineSet
EndChar

StartChar: guilsinglright
Encoding: 8250 8250 128
Width: 287
Flags: HW
LayerCount: 2
Fore
SplineSet
20 49 m 1,0,-1
 20 93 l 1,1,-1
 207 280 l 1,2,-1
 20 466 l 1,3,-1
 20 553 l 1,4,-1
 272 300 l 1,5,-1
 20 49 l 1,0,-1
EndSplineSet
EndChar

StartChar: oe
Encoding: 339 339 129
Width: 675
Flags: HW
LayerCount: 2
Fore
SplineSet
441 414 m 1,0,1
 398 288 398 288 433 204 c 1,2,-1
 537 324 l 1,3,4
 518 406 518 406 441 414 c 1,0,1
100 387 m 1,5,6
 86 343 86 343 91 301.5 c 128,-1,7
 96 260 96 260 114 224 c 128,-1,8
 132 188 132 188 159.5 160 c 128,-1,9
 187 132 187 132 218 114.5 c 128,-1,10
 249 97 249 97 279 92.5 c 128,-1,11
 309 88 309 88 333 99 c 1,12,13
 347 135 347 135 345 174 c 128,-1,14
 343 213 343 213 328 249 c 128,-1,15
 313 285 313 285 288.5 315.5 c 128,-1,16
 264 346 264 346 234 366 c 128,-1,17
 204 386 204 386 169 392.5 c 128,-1,18
 134 399 134 399 100 387 c 1,5,6
454 170 m 1,19,20
 501 112 501 112 557 106 c 0,21,22
 608 102 608 102 652 129 c 1,23,-1
 664 122 l 1,24,25
 603 4 603 4 511 -13 c 1,26,27
 476 4 476 4 447 30 c 128,-1,28
 418 56 418 56 392 90 c 0,29,30
 388 94 388 94 385 99 c 128,-1,31
 382 104 382 104 379 110 c 1,32,33
 368 90 368 90 350 72 c 1,34,35
 292 4 292 4 206 -13 c 1,36,37
 122 23 122 23 66 90 c 1,38,39
 7 159 7 159 9 250 c 0,40,41
 13 343 13 343 68 403 c 0,42,43
 95 433 95 433 134 466.5 c 128,-1,44
 173 500 173 500 225 536 c 1,45,46
 329 467 329 467 371 390 c 0,47,48
 375 384 375 384 377 377 c 1,49,50
 385 392 385 392 394 402 c 1,51,52
 441 463 441 463 527 536 c 1,53,54
 600 485 600 485 650 396 c 1,55,-1
 454 170 l 1,19,20
EndSplineSet
EndChar

StartChar: exclamdown
Encoding: 161 161 131
Width: 1200
Flags: HW
LayerCount: 2
Fore
SplineSet
32 483 m 1,0,-1
 121 590 l 1,1,-1
 202 495 l 1,2,-1
 116 396 l 1,3,-1
 32 483 l 1,0,-1
31 -196 m 1,4,5
 51 -54 51 -54 66.5 87.5 c 128,-1,6
 82 229 82 229 93 385 c 1,7,-1
 141 385 l 1,8,9
 149 229 149 229 164.5 88 c 128,-1,10
 180 -53 180 -53 202 -196 c 1,11,-1
 31 -196 l 1,4,5
EndSplineSet
EndChar

StartChar: sterling
Encoding: 163 163 133
Width: 1200
Flags: HW
LayerCount: 2
Fore
SplineSet
611 191 m 1,0,1
 543 38 543 38 462 14 c 0,2,3
 382 -11 382 -11 252 4 c 1,4,5
 127 19 127 19 22 -13 c 1,6,-1
 -2 26 l 1,7,8
 94 61 94 61 161 428 c 1,9,-1
 84 428 l 1,10,-1
 84 459 l 1,11,-1
 113 459 l 2,12,13
 165 459 165 459 171 512 c 0,14,15
 177 566 177 566 126 569 c 1,16,-1
 130 588 l 1,17,18
 313 734 313 734 493 776 c 1,19,20
 506 720 506 720 569 708 c 1,21,-1
 485 614 l 1,22,23
 438 675 438 675 317 657 c 1,24,25
 334 590 334 590 303 459 c 1,26,-1
 429 459 l 1,27,-1
 431 428 l 1,28,-1
 297 428 l 1,29,30
 256 225 256 225 184 117 c 1,31,32
 271 166 271 166 375 136 c 0,33,34
 479 106 479 106 582 215 c 1,35,-1
 611 191 l 1,0,1
EndSplineSet
EndChar

StartChar: currency
Encoding: 164 164 134
Width: 1200
Flags: HW
LayerCount: 2
Fore
SplineSet
67 503 m 1,0,1
 95 593 95 593 155 653 c 0,2,3
 225 723 225 723 287 751 c 1,4,5
 350 781 350 781 442 781 c 0,6,7
 534 783 534 783 600 754.5 c 128,-1,8
 666 726 666 726 725 670 c 1,9,-1
 590 556 l 1,10,-1
 565 587 l 1,11,12
 574 625 574 625 534.5 661.5 c 128,-1,13
 495 698 495 698 413 693 c 128,-1,14
 331 688 331 688 269 626 c 1,15,16
 221 575 221 575 206 503 c 1,17,-1
 378 503 l 2,18,19
 421 503 421 503 466 521 c 1,20,-1
 492 512 l 1,21,-1
 432 427 l 1,22,23
 397 437 397 437 364 437 c 2,24,-1
 200 437 l 1,25,26
 199 413 199 413 201 390.5 c 128,-1,27
 203 368 203 368 208 344 c 1,28,-1
 342 344 l 2,29,30
 382 344 382 344 429 361 c 1,31,-1
 455 353 l 1,32,-1
 395 268 l 1,33,34
 360 278 360 278 327 279 c 2,35,-1
 226 279 l 1,36,37
 228 271 228 271 231 267 c 1,38,39
 250 221 250 221 277.5 188 c 128,-1,40
 305 155 305 155 337.5 133.5 c 128,-1,41
 370 112 370 112 406 103 c 128,-1,42
 442 94 442 94 479 97 c 1,43,44
 535 100 535 100 574.5 116.5 c 128,-1,45
 614 133 614 133 643.5 156.5 c 128,-1,46
 673 180 673 180 694.5 206.5 c 128,-1,47
 716 233 716 233 736 257 c 1,48,-1
 770 221 l 1,49,50
 704 132 704 132 669 96 c 0,51,52
 625 52 625 52 559 20 c 0,53,54
 489 -14 489 -14 402 -14 c 0,55,56
 308 -16 308 -16 212 46 c 1,57,58
 109 109 109 109 71 239 c 0,59,60
 68 249 68 249 64.5 258.5 c 128,-1,61
 61 268 61 268 59 279 c 1,62,-1
 -33 279 l 1,63,-1
 -33 344 l 1,64,-1
 49 344 l 1,65,66
 45 388 45 388 51 437 c 1,67,-1
 -33 437 l 1,68,-1
 -33 503 l 1,69,-1
 67 503 l 1,0,1
EndSplineSet
EndChar

StartChar: yen
Encoding: 165 165 135
Width: 1200
Flags: HW
LayerCount: 2
Fore
SplineSet
129 287 m 1,0,1
 160 281 160 281 219 278 c 1,2,-1
 219 326 l 1,3,4
 102 462 102 462 102 578 c 256,5,6
 102 694 102 694 19 732 c 1,7,-1
 19 771 l 1,8,-1
 165 771 l 1,9,10
 230 714 230 714 232 587 c 1,11,12
 237 459 237 459 333 380 c 1,13,14
 413 451 413 451 423 516 c 0,15,16
 434 584 434 584 387 640 c 1,17,18
 341 698 341 698 255 671 c 1,19,-1
 247 693 l 1,20,21
 277 710 277 710 299 731.5 c 128,-1,22
 321 753 321 753 334 778 c 1,23,24
 415 784 415 784 469 735 c 0,25,26
 523 687 523 687 517 610.5 c 128,-1,27
 511 534 511 534 467.5 466 c 128,-1,28
 424 398 424 398 355 337 c 1,29,-1
 355 278 l 1,30,-1
 409 278 l 2,31,32
 444 278 444 278 487 295 c 1,33,-1
 510 287 l 1,34,-1
 457 206 l 1,35,36
 421 215 421 215 396 215 c 2,37,-1
 355 215 l 1,38,-1
 355 166 l 1,39,-1
 396 166 l 2,40,41
 432 166 432 166 475 183 c 1,42,-1
 498 175 l 1,43,-1
 444 94 l 1,44,45
 408 103 408 103 384 103 c 2,46,-1
 355 103 l 1,47,-1
 355 0 l 1,48,-1
 219 0 l 1,49,-1
 219 103 l 1,50,-1
 164 103 l 2,51,52
 116 103 116 103 85 82 c 1,53,-1
 65 87 l 1,54,-1
 117 175 l 1,55,56
 158 166 158 166 219 166 c 1,57,-1
 219 215 l 1,58,-1
 175 215 l 2,59,60
 126 215 126 215 97 193 c 1,61,-1
 77 199 l 1,62,-1
 129 287 l 1,0,1
EndSplineSet
EndChar

StartChar: section
Encoding: 167 167 136
Width: 1200
Flags: HW
LayerCount: 2
Fore
SplineSet
159 438 m 1,0,1
 128 369 128 369 164 325 c 1,2,3
 200 282 200 282 264 280 c 0,4,5
 333 278 333 278 375 287 c 1,6,7
 383 355 383 355 339 395 c 1,8,9
 296 438 296 438 241 439 c 0,10,11
 213 440 213 440 192.5 439.5 c 128,-1,12
 172 439 172 439 159 438 c 1,0,1
116 441 m 1,13,14
 31 511 31 511 34 573 c 0,15,16
 37 636 37 636 91 670 c 0,17,18
 119 686 119 686 143 700 c 128,-1,19
 167 714 167 714 190 726 c 128,-1,20
 213 738 213 738 236 749.5 c 128,-1,21
 259 761 259 761 286 773 c 1,22,23
 389 724 389 724 463 662 c 1,24,25
 411 647 411 647 351 590 c 1,26,27
 337 638 337 638 276 662 c 1,28,29
 219 688 219 688 161 675 c 1,30,31
 124 598 124 598 161 552 c 0,32,33
 198 507 198 507 281 504 c 0,34,35
 366 501 366 501 441 536 c 1,36,37
 457 497 457 497 466.5 462.5 c 128,-1,38
 476 428 476 428 476 397 c 256,39,40
 476 366 476 366 465 339.5 c 128,-1,41
 454 313 454 313 429 292 c 1,42,43
 480 232 480 232 481 162 c 0,44,45
 483 91 483 91 402 47 c 1,46,47
 321 1 321 1 236 -11 c 1,48,49
 195 1 195 1 160 16.5 c 128,-1,50
 125 32 125 32 95 49 c 0,51,52
 36 85 36 85 29 95 c 1,53,54
 94 117 94 117 150 161 c 1,55,56
 197 84 197 84 255 67 c 0,57,58
 316 50 316 50 378 61 c 1,59,60
 388 130 388 130 344 173 c 1,61,62
 298 216 298 216 218 217 c 0,63,64
 131 219 131 219 86 200 c 1,65,66
 31 281 31 281 33 338 c 1,67,68
 36 394 36 394 116 441 c 1,13,14
EndSplineSet
EndChar

StartChar: dieresis
Encoding: 168 168 137
Width: 1200
Flags: HW
LayerCount: 2
Fore
SplineSet
70 858 m 1,0,-1
 3 929 l 1,1,-1
 78 1008 l 1,2,-1
 143 941 l 1,3,-1
 70 858 l 1,0,-1
244 858 m 1,4,-1
 177 929 l 1,5,-1
 252 1008 l 1,6,-1
 317 941 l 1,7,-1
 244 858 l 1,4,-1
EndSplineSet
EndChar

StartChar: copyright
Encoding: 169 169 138
Width: 1200
Flags: HW
LayerCount: 2
Fore
SplineSet
323 510 m 1,0,1
 301 387 301 387 338 331 c 0,2,3
 375 274 375 274 424 266 c 0,4,5
 473 258 473 258 519 285 c 1,6,-1
 536 267 l 1,7,8
 518 231 518 231 482 202 c 128,-1,9
 446 173 446 173 391 157 c 1,10,11
 326 187 326 187 279 243 c 128,-1,12
 232 299 232 299 235.5 372.5 c 128,-1,13
 239 446 239 446 302 513 c 1,14,15
 335 546 335 546 360.5 569.5 c 128,-1,16
 386 593 386 593 407 607 c 1,17,18
 478 565 478 565 509 516 c 1,19,-1
 436 451 l 1,20,21
 391 494 391 494 323 510 c 1,0,1
70 386 m 0,22,23
 70 317 70 317 96 257 c 128,-1,24
 122 197 122 197 167.5 152.5 c 128,-1,25
 213 108 213 108 273 81.5 c 128,-1,26
 333 55 333 55 400 55 c 0,27,28
 469 55 469 55 529.5 81.5 c 128,-1,29
 590 108 590 108 635 152.5 c 128,-1,30
 680 197 680 197 706.5 257 c 128,-1,31
 733 317 733 317 733 386 c 0,32,33
 733 454 733 454 706.5 515.5 c 128,-1,34
 680 577 680 577 635 623 c 128,-1,35
 590 669 590 669 529.5 696 c 128,-1,36
 469 723 469 723 400 723 c 0,37,38
 332 723 332 723 272.5 696 c 128,-1,39
 213 669 213 669 167.5 623 c 128,-1,40
 122 577 122 577 96 515.5 c 128,-1,41
 70 454 70 454 70 386 c 0,22,23
15 386 m 256,42,43
 15 466 15 466 45.5 536 c 128,-1,44
 76 606 76 606 128 658.5 c 128,-1,45
 180 711 180 711 250.5 741 c 128,-1,46
 321 771 321 771 400 771 c 0,47,48
 479 771 479 771 549.5 741 c 128,-1,49
 620 711 620 711 672.5 658.5 c 128,-1,50
 725 606 725 606 755.5 536 c 128,-1,51
 786 466 786 466 786 386 c 256,52,53
 786 306 786 306 755.5 236 c 128,-1,54
 725 166 725 166 672.5 113 c 128,-1,55
 620 60 620 60 549.5 30 c 128,-1,56
 479 0 479 0 400 0 c 0,57,58
 320 0 320 0 250 30 c 128,-1,59
 180 60 180 60 128 113 c 128,-1,60
 76 166 76 166 45.5 236 c 128,-1,61
 15 306 15 306 15 386 c 256,42,43
EndSplineSet
EndChar

StartChar: ordfeminine
Encoding: 170 170 139
Width: 1200
Flags: HW
LayerCount: 2
Fore
SplineSet
245 418 m 1,0,-1
 245 531 l 1,1,-1
 170 503 l 1,2,3
 110 476 110 476 121 428 c 0,4,5
 131 381 131 381 168 378 c 1,6,-1
 245 418 l 1,0,-1
245 594 m 1,7,-1
 245 613 l 1,8,9
 240 643 240 643 209 667 c 1,10,11
 130 610 130 610 70 603 c 1,12,-1
 36 653 l 1,13,14
 151 698 151 698 210 779 c 1,15,16
 253 732 253 732 353 668 c 1,17,-1
 353 438 l 1,18,19
 354 391 354 391 404 391 c 1,20,-1
 404 355 l 1,21,-1
 349 300 l 1,22,-1
 254 366 l 1,23,-1
 140 292 l 1,24,25
 28 311 28 311 20 398 c 1,26,27
 14 485 14 485 93 535 c 1,28,-1
 245 594 l 1,7,-1
EndSplineSet
EndChar

StartChar: guillemotleft
Encoding: 171 171 140
Width: 1200
Flags: HW
LayerCount: 2
Fore
SplineSet
262 553 m 1,0,-1
 262 509 l 1,1,-1
 76 323 l 1,2,-1
 262 136 l 1,3,-1
 262 49 l 1,4,-1
 10 302 l 1,5,-1
 262 553 l 1,0,-1
426 553 m 1,6,-1
 426 509 l 1,7,-1
 240 323 l 1,8,-1
 426 136 l 1,9,-1
 426 49 l 1,10,-1
 174 302 l 1,11,-1
 426 553 l 1,6,-1
EndSplineSet
EndChar

StartChar: registered
Encoding: 174 174 141
Width: 1200
Flags: HW
LayerCount: 2
Fore
SplineSet
378 452 m 1,0,1
 490 511 490 511 486 558 c 1,2,3
 485 604 485 604 421 597 c 0,4,5
 359 590 359 590 378 452 c 1,0,1
379 401 m 1,6,7
 368 325 368 325 420 310 c 1,8,-1
 420 268 l 1,9,10
 336 291 336 291 278 259 c 1,11,-1
 256 290 l 1,12,13
 307 323 307 323 307 441 c 256,14,15
 307 560 307 560 262 552 c 1,16,-1
 262 585 l 1,17,18
 305 585 305 585 362 614 c 1,19,20
 417 645 417 645 496 630 c 0,21,22
 575 615 575 615 562 552 c 0,23,24
 550 489 550 489 451 441 c 1,25,26
 490 328 490 328 625 340 c 1,27,-1
 549 257 l 1,28,29
 457 307 457 307 410 424 c 1,30,-1
 379 401 l 1,6,7
151 435 m 256,31,32
 151 379 151 379 172.5 329.5 c 128,-1,33
 194 280 194 280 230.5 243 c 128,-1,34
 267 206 267 206 317 184.5 c 128,-1,35
 367 163 367 163 423 163 c 256,36,37
 479 163 479 163 529 184.5 c 128,-1,38
 579 206 579 206 616 243 c 128,-1,39
 653 280 653 280 674.5 329.5 c 128,-1,40
 696 379 696 379 696 435 c 256,41,42
 696 491 696 491 674.5 541 c 128,-1,43
 653 591 653 591 616 628.5 c 128,-1,44
 579 666 579 666 529 687.5 c 128,-1,45
 479 709 479 709 423 709 c 256,46,47
 367 709 367 709 317 687.5 c 128,-1,48
 267 666 267 666 230.5 628.5 c 128,-1,49
 194 591 194 591 172.5 541 c 128,-1,50
 151 491 151 491 151 435 c 256,31,32
90 435 m 0,51,52
 90 504 90 504 116 565.5 c 128,-1,53
 142 627 142 627 187.5 672.5 c 128,-1,54
 233 718 233 718 294 744.5 c 128,-1,55
 355 771 355 771 425 771 c 0,56,57
 494 771 494 771 555 744.5 c 128,-1,58
 616 718 616 718 662 672.5 c 128,-1,59
 708 627 708 627 734.5 565.5 c 128,-1,60
 761 504 761 504 761 435 c 0,61,62
 761 365 761 365 734.5 304.5 c 128,-1,63
 708 244 708 244 662 198.5 c 128,-1,64
 616 153 616 153 555 126.5 c 128,-1,65
 494 100 494 100 425 100 c 0,66,67
 355 100 355 100 294 126.5 c 128,-1,68
 233 153 233 153 187.5 198.5 c 128,-1,69
 142 244 142 244 116 304.5 c 128,-1,70
 90 365 90 365 90 435 c 0,51,52
EndSplineSet
EndChar

StartChar: macron
Encoding: 175 175 142
Width: 1200
Flags: HW
LayerCount: 2
Fore
SplineSet
32 958 m 1,0,-1
 265 958 l 1,1,-1
 245 903 l 1,2,-1
 11 903 l 1,3,-1
 32 958 l 1,0,-1
EndSplineSet
EndChar

StartChar: degree
Encoding: 176 176 143
Width: 1200
Flags: HW
LayerCount: 2
Fore
SplineSet
70 570 m 256,0,1
 70 540 70 540 81 513.5 c 128,-1,2
 92 487 92 487 112 468 c 128,-1,3
 132 449 132 449 158 437.5 c 128,-1,4
 184 426 184 426 214 426 c 256,5,6
 244 426 244 426 270.5 437.5 c 128,-1,7
 297 449 297 449 317 468 c 128,-1,8
 337 487 337 487 348 514 c 128,-1,9
 359 541 359 541 359 570 c 256,10,11
 359 600 359 600 348 626.5 c 128,-1,12
 337 653 337 653 317 673 c 128,-1,13
 297 693 297 693 270.5 705 c 128,-1,14
 244 717 244 717 214 717 c 256,15,16
 184 717 184 717 158 705 c 128,-1,17
 132 693 132 693 112 673 c 128,-1,18
 92 653 92 653 81 626.5 c 128,-1,19
 70 600 70 600 70 570 c 256,0,1
15 570 m 0,20,21
 15 611 15 611 31 648 c 128,-1,22
 47 685 47 685 74 712 c 128,-1,23
 101 739 101 739 137.5 755 c 128,-1,24
 174 771 174 771 216 771 c 0,25,26
 257 771 257 771 293.5 755 c 128,-1,27
 330 739 330 739 357.5 712 c 128,-1,28
 385 685 385 685 401 648 c 128,-1,29
 417 611 417 611 417 570 c 0,30,31
 417 528 417 528 401 492 c 128,-1,32
 385 456 385 456 357.5 428.5 c 128,-1,33
 330 401 330 401 293.5 385.5 c 128,-1,34
 257 370 257 370 216 370 c 0,35,36
 174 370 174 370 137.5 385.5 c 128,-1,37
 101 401 101 401 74 428.5 c 128,-1,38
 47 456 47 456 31 492 c 128,-1,39
 15 528 15 528 15 570 c 0,20,21
EndSplineSet
EndChar

StartChar: acute
Encoding: 180 180 145
Width: 1200
Flags: HW
LayerCount: 2
Fore
SplineSet
229 932 m 1,0,-1
 42 851 l 1,1,-1
 14 877 l 1,2,-1
 173 995 l 1,3,-1
 229 932 l 1,0,-1
EndSplineSet
EndChar

StartChar: mu
Encoding: 181 181 146
Width: 1200
Flags: HW
LayerCount: 2
Fore
SplineSet
88 -128 m 1,0,-1
 88 40 l 1,1,2
 48 100 48 100 41 132 c 0,3,4
 17 240 17 240 47 346 c 0,5,6
 78 454 78 454 41 523 c 1,7,-1
 185 523 l 1,8,9
 230 469 230 469 181 314 c 1,10,11
 125 156 125 156 213 129 c 0,12,13
 301 102 301 102 366 152 c 1,14,-1
 366 523 l 1,15,-1
 502 523 l 1,16,-1
 502 176 l 2,17,18
 502 116 502 116 553 111 c 1,19,-1
 553 92 l 1,20,-1
 438 -6 l 1,21,22
 377 11 377 11 369 81 c 1,23,24
 224 61 224 61 170 0 c 1,25,-1
 170 -80 l 1,26,27
 171 -132 171 -132 219 -132 c 1,28,-1
 219 -152 l 1,29,-1
 146 -197 l 1,30,-1
 88 -128 l 1,0,-1
EndSplineSet
EndChar

StartChar: paragraph
Encoding: 182 182 147
Width: 1200
Flags: HW
LayerCount: 2
Fore
SplineSet
292 0 m 1,0,-1
 142 0 l 1,1,-1
 142 43 l 1,2,3
 224 43 224 43 224 114 c 2,4,-1
 224 614 l 2,5,6
 224 691 224 691 177 645 c 1,7,8
 129 600 129 600 94 600 c 0,9,10
 58 600 58 600 33.5 624.5 c 128,-1,11
 9 649 9 649 9 685 c 256,12,13
 9 721 9 721 33.5 746 c 128,-1,14
 58 771 58 771 124 771 c 2,15,-1
 536 771 l 1,16,-1
 536 728 l 1,17,18
 454 728 454 728 454 647 c 2,19,-1
 454 126 l 2,20,21
 454 48 454 48 535 41 c 1,22,-1
 535 0 l 1,23,-1
 386 0 l 1,24,-1
 386 660 l 1,25,-1
 292 660 l 1,26,-1
 292 0 l 1,0,-1
EndSplineSet
EndChar

StartChar: cedilla
Encoding: 184 184 149
Width: 1200
Flags: HW
LayerCount: 2
Fore
SplineSet
118 -156 m 1,0,1
 129 -101 129 -101 110.5 -76.5 c 128,-1,2
 92 -52 92 -52 37 -49 c 1,3,4
 37 -11 37 -11 61 10 c 1,5,-1
 86 10 l 1,6,7
 74 -2 74 -2 76 -19 c 1,8,9
 115 -15 115 -15 139.5 -38.5 c 128,-1,10
 164 -62 164 -62 163 -95 c 0,11,12
 162 -129 162 -129 131 -160 c 0,13,14
 101 -191 101 -191 74 -200 c 1,15,16
 35 -189 35 -189 22 -159 c 1,17,-1
 58 -130 l 1,18,19
 79 -155 79 -155 118 -156 c 1,0,1
EndSplineSet
EndChar

StartChar: ordmasculine
Encoding: 186 186 150
Width: 1200
Flags: HW
LayerCount: 2
Fore
SplineSet
108 655 m 1,0,1
 97 623 97 623 96 592 c 1,2,3
 94 557 94 557 110.5 520.5 c 128,-1,4
 127 484 127 484 152.5 454 c 128,-1,5
 178 424 178 424 208.5 405 c 128,-1,6
 239 386 239 386 265 386 c 0,7,8
 290 386 290 386 308 392 c 1,9,10
 314 406 314 406 317 450 c 0,11,12
 320 490 320 490 309 531 c 0,13,14
 302 559 302 559 288.5 585 c 128,-1,15
 275 611 275 611 257 630.5 c 128,-1,16
 239 650 239 650 217 662 c 128,-1,17
 195 674 195 674 169 674 c 0,18,19
 145 673 145 673 108 655 c 1,0,1
223 786 m 1,20,21
 307 734 307 734 348.5 670.5 c 128,-1,22
 390 607 390 607 390 520 c 0,23,24
 390 434 390 434 335 375 c 0,25,26
 280 315 280 315 200 298 c 1,27,28
 181 306 181 306 163.5 315.5 c 128,-1,29
 146 325 146 325 130 337 c 128,-1,30
 114 349 114 349 97 366 c 128,-1,31
 80 383 80 383 60 407 c 0,32,33
 23 453 23 453 24 514 c 0,34,35
 25 576 25 576 38.5 611.5 c 128,-1,36
 52 647 52 647 75 674 c 0,37,38
 99 702 99 702 133.5 729.5 c 128,-1,39
 168 757 168 757 223 786 c 1,20,21
EndSplineSet
EndChar

StartChar: guillemotright
Encoding: 187 187 151
Width: 1200
Flags: HW
LayerCount: 2
Fore
SplineSet
184 49 m 1,0,-1
 184 93 l 1,1,-1
 371 280 l 1,2,-1
 184 466 l 1,3,-1
 184 553 l 1,4,-1
 436 300 l 1,5,-1
 184 49 l 1,0,-1
20 49 m 1,6,-1
 20 93 l 1,7,-1
 207 280 l 1,8,-1
 20 466 l 1,9,-1
 20 553 l 1,10,-1
 272 300 l 1,11,-1
 20 49 l 1,6,-1
EndSplineSet
EndChar

StartChar: questiondown
Encoding: 191 191 152
Width: 1200
Flags: HW
LayerCount: 2
Fore
SplineSet
186 -68 m 1,0,1
 263 -83 263 -83 326.5 -50 c 128,-1,2
 390 -17 390 -17 416 42 c 1,3,4
 486 -15 486 -15 560 -36 c 1,5,6
 507 -83 507 -83 444 -124 c 128,-1,7
 381 -165 381 -165 304 -200 c 1,8,9
 154 -127 154 -127 85 -63 c 0,10,11
 14 0 14 0 10 93 c 0,12,13
 5 187 5 187 81 289 c 1,14,15
 210 235 210 235 266 262 c 1,16,17
 322 288 322 288 284 373 c 1,18,-1
 392 373 l 1,19,20
 491 258 491 258 398 154 c 1,21,22
 338 210 338 210 247 208 c 0,23,24
 162 206 162 206 144 117 c 1,25,26
 126 29 126 29 186 -68 c 1,0,1
342 604 m 1,27,-1
 422 510 l 1,28,-1
 331 411 l 1,29,-1
 252 498 l 1,30,-1
 342 604 l 1,27,-1
EndSplineSet
EndChar

StartChar: AE
Encoding: 198 198 159
Width: 1200
Flags: HW
LayerCount: 2
Fore
SplineSet
331 724 m 1,0,1
 331 534 331 534 309 446 c 1,2,-1
 498 446 l 1,3,-1
 478 644 l 1,4,5
 478 725 478 725 404 724 c 1,6,-1
 331 724 l 1,0,1
1105 221 m 1,7,8
 1020 55 1020 55 902 1 c 0,9,10
 787 -52 787 -52 641 79 c 1,11,-1
 659 0 l 1,12,-1
 358 0 l 1,13,-1
 358 43 l 1,14,15
 536 44 536 44 524 155 c 1,16,-1
 509 318 l 1,17,-1
 289 318 l 1,18,19
 242 127 242 127 139 -12 c 1,20,21
 113 15 113 15 85 43.5 c 128,-1,22
 57 72 57 72 27 102 c 1,23,-1
 45 124 l 1,24,25
 76 102 76 102 122 153 c 0,26,27
 169 203 169 203 219 349 c 0,28,29
 270 500 270 500 280 724 c 1,30,-1
 99 724 l 1,31,-1
 109 772 l 1,32,-1
 479 772 l 2,33,34
 581 772 581 772 603 643 c 1,35,36
 681 745 681 745 787 764 c 0,37,38
 895 783 895 783 953 755 c 0,39,40
 1012 726 1012 726 1064 670 c 1,41,-1
 944 556 l 1,42,-1
 923 587 l 1,43,44
 936 656 936 656 871 686 c 0,45,46
 808 717 808 717 735 643 c 0,47,48
 663 571 663 571 651 419 c 1,49,-1
 1054 479 l 1,50,-1
 966 292 l 1,51,-1
 949 292 l 1,52,53
 944 343 944 343 891 343 c 1,54,-1
 657 353 l 1,55,56
 665 320 665 320 674 290 c 128,-1,57
 683 260 683 260 693 231 c 0,58,59
 715 174 715 174 791.5 130 c 128,-1,60
 868 86 868 86 937 127 c 0,61,62
 972 147 972 147 1005.5 180 c 128,-1,63
 1039 213 1039 213 1074 257 c 1,64,-1
 1105 221 l 1,7,8
EndSplineSet
EndChar

StartChar: germandbls
Encoding: 223 223 180
Width: 1200
Flags: HW
LayerCount: 2
Fore
SplineSet
46 70 m 1,0,-1
 46 598 l 2,1,2
 46 668 46 668 134 728 c 0,3,4
 219 787 219 787 344 779 c 0,5,6
 467 771 467 771 503 703 c 0,7,8
 540 635 540 635 503 563 c 0,9,10
 467 491 467 491 383 466 c 1,11,12
 499 455 499 455 559 370 c 0,13,14
 619 286 619 286 572 153 c 1,15,16
 524 21 524 21 293 -1 c 1,17,-1
 293 49 l 1,18,19
 391 55 391 55 426 130 c 128,-1,20
 461 205 461 205 426 280 c 0,21,22
 390 356 390 356 243 371 c 1,23,-1
 243 440 l 1,24,25
 381 484 381 484 385 576.5 c 128,-1,26
 389 669 389 669 358 701 c 0,27,28
 329 733 329 733 256 716 c 0,29,30
 183 699 183 699 182 578 c 1,31,-1
 182 141 l 1,32,33
 183 73 183 73 246 74 c 1,34,-1
 246 49 l 1,35,-1
 152 -9 l 1,36,-1
 46 70 l 1,0,-1
EndSplineSet
EndChar

StartChar: ae
Encoding: 230 230 187
Width: 1200
Flags: HW
LayerCount: 2
Fore
SplineSet
336 414 m 1,0,1
 292 290 292 290 327 204 c 1,2,-1
 431 324 l 1,3,4
 413 406 413 406 336 414 c 1,0,1
197 247 m 1,5,6
 138 200 138 200 138 143 c 0,7,8
 139 90 139 90 195 83 c 1,9,-1
 251 110 l 1,10,-1
 251 274 l 1,11,-1
 197 247 l 1,5,6
347 170 m 1,12,13
 394 112 394 112 452 106 c 0,14,15
 503 102 503 102 547 129 c 1,16,-1
 559 122 l 1,17,18
 496 3 496 3 406 -13 c 1,19,20
 346 18 346 18 295 74 c 1,21,-1
 126 -22 l 1,22,23
 36 0 36 0 24 92 c 0,24,25
 13 184 13 184 82 245 c 1,26,-1
 251 318 l 1,27,-1
 251 351 l 1,28,29
 245 398 245 398 206 417 c 1,30,31
 147 373 147 373 56 354 c 1,32,-1
 34 392 l 1,33,34
 147 443 147 443 205 534 c 1,35,36
 232 511 232 511 258 484.5 c 128,-1,37
 284 458 284 458 307 426 c 1,38,39
 334 464 334 464 363 491 c 128,-1,40
 392 518 392 518 422 536 c 1,41,42
 459 510 459 510 489.5 475 c 128,-1,43
 520 440 520 440 546 396 c 1,44,-1
 347 170 l 1,12,13
EndSplineSet
EndChar

StartChar: divide
Encoding: 247 247 203
Width: 1200
Flags: HW
LayerCount: 2
Fore
SplineSet
61 345 m 1,0,1
 100 329 100 329 162 329 c 2,2,-1
 300 329 l 2,3,4
 336 329 336 329 374 357 c 1,5,-1
 395 344 l 1,6,-1
 345 252 l 1,7,8
 312 267 312 267 288 267 c 2,9,-1
 105 267 l 2,10,11
 60 267 60 267 32 230 c 1,12,-1
 12 240 l 1,13,-1
 61 345 l 1,0,1
214 58 m 1,14,-1
 158 124 l 1,15,-1
 222 194 l 1,16,-1
 276 133 l 1,17,-1
 214 58 l 1,14,-1
214 402 m 1,18,-1
 158 468 l 1,19,-1
 222 537 l 1,20,-1
 276 476 l 1,21,-1
 214 402 l 1,18,-1
EndSplineSet
EndChar

StartChar: brokenbar
Encoding: 166 166 211
Width: 1200
Flags: HW
LayerCount: 2
Fore
SplineSet
102 499 m 1,0,-1
 33 499 l 1,1,-1
 33 819 l 1,2,-1
 102 819 l 1,3,-1
 102 499 l 1,0,-1
33 138 m 1,4,-1
 102 138 l 1,5,-1
 102 -194 l 1,6,-1
 33 -194 l 1,7,-1
 33 138 l 1,4,-1
EndSplineSet
EndChar

StartChar: twosuperior
Encoding: 178 178 212
Width: 1200
Flags: HW
LayerCount: 2
Fore
SplineSet
445 464 m 1,0,1
 443 440 443 440 438 420.5 c 128,-1,2
 433 401 433 401 426 385 c 0,3,4
 419 370 419 370 407 354.5 c 128,-1,5
 395 339 395 339 380 326.5 c 128,-1,6
 365 314 365 314 345.5 306.5 c 128,-1,7
 326 299 326 299 303 299 c 0,8,9
 283 299 283 299 256 301 c 128,-1,10
 229 303 229 303 202.5 306 c 128,-1,11
 176 309 176 309 152.5 312 c 128,-1,12
 129 315 129 315 116 317 c 1,13,-1
 111 317 l 2,14,15
 82 317 82 317 50 295 c 1,16,-1
 16 325 l 1,17,18
 47 402 47 402 84 469 c 128,-1,19
 121 536 121 536 165 597 c 1,20,21
 188 575 188 575 209.5 563.5 c 128,-1,22
 231 552 231 552 266 556 c 128,-1,23
 301 560 301 560 309 604 c 0,24,25
 317 651 317 651 292 703 c 1,26,27
 235 701 235 701 205 677.5 c 128,-1,28
 175 654 175 654 161 623 c 1,29,30
 110 662 110 662 49 680 c 1,31,32
 88 713 88 713 131 740 c 128,-1,33
 174 767 174 767 221 790 c 1,34,35
 309 752 309 752 357 710 c 0,36,37
 406 667 406 667 408.5 606 c 128,-1,38
 411 545 411 545 358 480 c 1,39,40
 314 509 314 509 286 509 c 1,41,42
 268 510 268 510 250 507.5 c 128,-1,43
 232 505 232 505 215 493.5 c 128,-1,44
 198 482 198 482 180 460 c 128,-1,45
 162 438 162 438 142 400 c 1,46,47
 179 416 179 416 232 413 c 0,48,49
 259 411 259 411 281 407.5 c 128,-1,50
 303 404 303 404 321 402 c 0,51,52
 356 397 356 397 379 430 c 0,53,54
 403 464 403 464 408 481 c 1,55,-1
 445 464 l 1,0,1
EndSplineSet
EndChar

StartChar: threesuperior
Encoding: 179 179 213
Width: 1200
Flags: HW
LayerCount: 2
Fore
SplineSet
161 429 m 1,0,1
 170 367 170 367 270 343 c 1,2,3
 309 357 309 357 324 396 c 0,4,5
 338 438 338 438 318 474 c 0,6,7
 299 512 299 512 207 520 c 1,8,-1
 208 579 l 1,9,10
 252 592 252 592 272.5 610.5 c 128,-1,11
 293 629 293 629 293 666 c 0,12,13
 294 703 294 703 279.5 717 c 128,-1,14
 265 731 265 731 225 730 c 128,-1,15
 185 729 185 729 163 668 c 1,16,-1
 55 678 l 1,17,-1
 55 716 l 1,18,19
 123 739 123 739 156 763 c 0,20,21
 190 789 190 789 272 781 c 1,22,23
 356 775 356 775 384 741.5 c 128,-1,24
 412 708 412 708 401 666.5 c 128,-1,25
 390 625 390 625 333 592 c 1,26,27
 389 581 389 581 419 524 c 0,28,29
 449 467 449 467 416 391 c 128,-1,30
 383 315 383 315 263 289 c 1,31,32
 96 306 96 306 46 409 c 1,33,-1
 161 429 l 1,0,1
EndSplineSet
EndChar

StartChar: onesuperior
Encoding: 185 185 214
Width: 1200
Flags: HW
LayerCount: 2
Fore
SplineSet
73 305 m 1,0,-1
 73 665 l 2,1,2
 73 689 73 689 41 691 c 1,3,-1
 41 717 l 1,4,-1
 174 785 l 1,5,-1
 174 305 l 1,6,-1
 73 305 l 1,0,-1
EndSplineSet
EndChar

StartChar: onequarter
Encoding: 188 188 215
Width: 1200
Flags: HW
LayerCount: 2
Fore
SplineSet
117 665 m 2,0,1
 117 689 117 689 85 691 c 1,2,-1
 85 717 l 1,3,-1
 218 785 l 1,4,-1
 218 305 l 1,5,-1
 117 305 l 1,6,-1
 117 665 l 2,0,1
504 206 m 1,7,8
 605 287 605 287 601 432 c 1,9,10
 677 413 677 413 697 341 c 1,11,12
 629 284 629 284 622 222 c 1,13,-1
 726 226 l 1,14,-1
 726 350 l 1,15,16
 725 377 725 377 718 398.5 c 128,-1,17
 711 420 711 420 693 437 c 1,18,-1
 888 552 l 1,19,20
 834 455 834 455 834 416 c 2,21,-1
 834 230 l 1,22,-1
 933 234 l 1,23,24
 887 198 887 198 862.5 178.5 c 128,-1,25
 838 159 838 159 834 157 c 1,26,27
 828 16 828 16 700 -56 c 1,28,-1
 700 -19 l 1,29,30
 712 -4 712 -4 719 22 c 128,-1,31
 726 48 726 48 726 88 c 2,32,-1
 726 163 l 1,33,-1
 517 159 l 1,34,-1
 504 206 l 1,7,8
216 0 m 1,35,-1
 142 0 l 1,36,-1
 647 797 l 1,37,-1
 714 797 l 1,38,-1
 216 0 l 1,35,-1
EndSplineSet
EndChar

StartChar: onehalf
Encoding: 189 189 216
Width: 1200
Flags: HW
LayerCount: 2
Fore
SplineSet
45 665 m 2,0,1
 45 689 45 689 13 691 c 1,2,-1
 13 717 l 1,3,-1
 146 785 l 1,4,-1
 146 305 l 1,5,-1
 45 305 l 1,6,-1
 45 665 l 2,0,1
820 146 m 1,7,8
 818 122 818 122 813 103 c 128,-1,9
 808 84 808 84 801 68 c 0,10,11
 794 53 794 53 782 37.5 c 128,-1,12
 770 22 770 22 754.5 9.5 c 128,-1,13
 739 -3 739 -3 719.5 -10.5 c 128,-1,14
 700 -18 700 -18 678 -18 c 0,15,16
 658 -18 658 -18 631 -16 c 128,-1,17
 604 -14 604 -14 577.5 -11 c 128,-1,18
 551 -8 551 -8 527.5 -5 c 128,-1,19
 504 -2 504 -2 490 0 c 1,20,-1
 485 0 l 2,21,22
 456 0 456 0 425 -23 c 1,23,24
 422 83 422 83 459 151 c 0,25,26
 477 185 477 185 497 217 c 128,-1,27
 517 249 517 249 540 280 c 1,28,29
 563 258 563 258 584.5 246 c 128,-1,30
 606 234 606 234 641 239 c 0,31,32
 677 244 677 244 684 287 c 0,33,34
 692 336 692 336 667 386 c 1,35,36
 610 384 610 384 580 360.5 c 128,-1,37
 550 337 550 337 536 305 c 1,38,39
 485 344 485 344 424 362 c 1,40,41
 463 395 463 395 506 422.5 c 128,-1,42
 549 450 549 450 596 472 c 1,43,44
 686 433 686 433 732 392 c 0,45,46
 781 349 781 349 783 288 c 128,-1,47
 785 227 785 227 733 163 c 1,48,49
 689 192 689 192 660 191 c 1,50,51
 642 192 642 192 624.5 189.5 c 128,-1,52
 607 187 607 187 589.5 176 c 128,-1,53
 572 165 572 165 554.5 143 c 128,-1,54
 537 121 537 121 517 83 c 1,55,56
 554 99 554 99 607 95 c 0,57,58
 634 93 634 93 656 90 c 128,-1,59
 678 87 678 87 695 85 c 0,60,61
 730 80 730 80 754 113 c 0,62,63
 779 149 779 149 782 164 c 1,64,-1
 820 146 l 1,7,8
138 0 m 1,65,-1
 65 0 l 1,66,-1
 569 797 l 1,67,-1
 636 797 l 1,68,-1
 138 0 l 1,65,-1
EndSplineSet
EndChar

StartChar: threequarters
Encoding: 190 190 217
Width: 1200
Flags: HW
LayerCount: 2
Fore
SplineSet
143 429 m 1,0,1
 152 367 152 367 253 343 c 1,2,3
 292 357 292 357 306 396 c 1,4,5
 320 439 320 439 301 474 c 0,6,7
 281 513 281 513 189 520 c 1,8,-1
 190 579 l 1,9,10
 234 592 234 592 254.5 610.5 c 128,-1,11
 275 629 275 629 275 666 c 0,12,13
 276 703 276 703 262 717 c 128,-1,14
 248 731 248 731 208 730 c 128,-1,15
 168 729 168 729 145 668 c 1,16,-1
 38 678 l 1,17,-1
 38 716 l 1,18,19
 108 740 108 740 138 763 c 0,20,21
 172 789 172 789 255 781 c 1,22,23
 339 775 339 775 366.5 741.5 c 128,-1,24
 394 708 394 708 383 666 c 128,-1,25
 372 624 372 624 315 592 c 1,26,27
 371 581 371 581 401 524 c 0,28,29
 431 467 431 467 398.5 391 c 128,-1,30
 366 315 366 315 246 289 c 1,31,32
 80 305 80 305 29 409 c 1,33,-1
 143 429 l 1,0,1
537 189 m 1,34,35
 638 270 638 270 634 416 c 1,36,37
 710 397 710 397 730 325 c 1,38,39
 662 268 662 268 654 206 c 1,40,-1
 759 210 l 1,41,-1
 759 334 l 1,42,43
 758 361 758 361 750.5 382 c 128,-1,44
 743 403 743 403 726 421 c 1,45,-1
 921 536 l 1,46,47
 867 439 867 439 866 399 c 2,48,-1
 866 214 l 1,49,-1
 966 218 l 1,50,51
 920 182 920 182 895 162 c 128,-1,52
 870 142 870 142 866 140 c 1,53,54
 860 -1 860 -1 733 -73 c 1,55,-1
 733 -36 l 1,56,57
 745 -21 745 -21 752 5.5 c 128,-1,58
 759 32 759 32 759 72 c 2,59,-1
 759 146 l 1,60,-1
 550 142 l 1,61,-1
 537 189 l 1,34,35
299 0 m 1,62,-1
 225 0 l 1,63,-1
 730 797 l 1,64,-1
 797 797 l 1,65,-1
 299 0 l 1,62,-1
EndSplineSet
EndChar

StartChar: multiply
Encoding: 215 215 219
Width: 1200
Flags: HW
LayerCount: 2
Fore
SplineSet
157 470 m 1,0,1
 165 450 165 450 180.5 429.5 c 128,-1,2
 196 409 196 409 216 388 c 2,3,-1
 239 366 l 1,4,-1
 323 450 l 1,5,-1
 422 425 l 1,6,-1
 300 303 l 1,7,-1
 364 241 l 2,8,9
 388 216 388 216 436 208 c 1,10,-1
 441 183 l 1,11,-1
 312 125 l 1,12,13
 300 159 300 159 283 176 c 2,14,-1
 228 230 l 1,15,-1
 103 106 l 1,16,-1
 41 169 l 1,17,-1
 166 293 l 1,18,-1
 103 355 l 2,19,20
 71 387 71 387 26 381 c 1,21,-1
 18 401 l 1,22,-1
 157 470 l 1,0,1
EndSplineSet
EndChar

StartChar: eth
Encoding: 240 240 222
Width: 1200
Flags: HW
LayerCount: 2
Fore
SplineSet
131 119 m 1,0,1
 174 103 174 103 218.5 102 c 128,-1,2
 263 101 263 101 302.5 113.5 c 128,-1,3
 342 126 342 126 374 150.5 c 128,-1,4
 406 175 406 175 424 210 c 128,-1,5
 442 245 442 245 443.5 288 c 128,-1,6
 445 331 445 331 424 380 c 1,7,8
 339 410 339 410 280.5 400.5 c 128,-1,9
 222 391 222 391 187 353 c 128,-1,10
 152 315 152 315 138.5 254 c 128,-1,11
 125 193 125 193 131 119 c 1,0,1
419 426 m 1,12,13
 410 541 410 541 322 638 c 1,14,-1
 216 570 l 1,15,-1
 194 605 l 1,16,-1
 292 668 l 1,17,18
 268 692 268 692 239.5 713.5 c 128,-1,19
 211 735 211 735 177 756 c 1,20,-1
 196 786 l 1,21,22
 288 756 288 756 357 710 c 1,23,-1
 444 768 l 1,24,-1
 467 733 l 1,25,-1
 394 684 l 1,26,27
 627 501 627 501 554 116 c 1,28,29
 471 113 471 113 407.5 77 c 128,-1,30
 344 41 344 41 298 -20 c 1,31,32
 235 -13 235 -13 185 14 c 128,-1,33
 135 41 135 41 101.5 81 c 128,-1,34
 68 121 68 121 49 169 c 128,-1,35
 30 217 30 217 28 266 c 128,-1,36
 26 315 26 315 40 362 c 128,-1,37
 54 409 54 409 85.5 444.5 c 128,-1,38
 117 480 117 480 166 502 c 128,-1,39
 215 524 215 524 282 524 c 1,40,41
 335 443 335 443 419 426 c 1,12,13
EndSplineSet
EndChar

StartChar: thorn
Encoding: 254 254 224
Width: 1200
Flags: HW
LayerCount: 2
Fore
SplineSet
372 98 m 1,0,1
 390 159 390 159 388.5 213 c 128,-1,2
 387 267 387 267 368 313 c 0,3,4
 350 359 350 359 322 385 c 128,-1,5
 294 411 294 411 265 432 c 1,6,7
 233 422 233 422 199 420 c 1,8,-1
 199 242 l 1,9,10
 223 145 223 145 275 117 c 1,11,12
 330 90 330 90 372 98 c 1,0,1
199 469 m 1,13,14
 267 485 267 485 324 531 c 1,15,16
 365 516 365 516 399.5 491.5 c 128,-1,17
 434 467 434 467 458.5 433 c 128,-1,18
 483 399 483 399 496 356.5 c 128,-1,19
 509 314 509 314 506 263 c 1,20,21
 504 208 504 208 489.5 170 c 128,-1,22
 475 132 475 132 449 101.5 c 128,-1,23
 423 71 423 71 385.5 43.5 c 128,-1,24
 348 16 348 16 301 -17 c 1,25,26
 248 0 248 0 199 83 c 1,27,-1
 199 -195 l 1,28,-1
 62 -195 l 1,29,-1
 62 598 l 2,30,31
 62 658 62 658 11 664 c 1,32,-1
 11 682 l 1,33,-1
 199 780 l 1,34,-1
 199 469 l 1,13,14
EndSplineSet
EndChar

